<svg width="60" height="52" viewBox="0 0 60 52" fill="none" xmlns="http://www.w3.org/2000/svg">
<path d="M58.909 38.9375C59.3926 38.9375 59.7847 38.5456 59.7847 38.0618V36.3681C59.7847 34.6559 58.4774 33.263 56.8706 33.263H55.4533V31.4686C55.4533 30.213 54.4317 29.1915 53.1762 29.1915H46.127C44.8714 29.1915 43.8499 30.2131 43.8499 31.4686V36.1417C37.5528 35.4071 29.7144 35.4059 23.4066 36.1417V31.4686C23.4066 30.213 22.385 29.1915 21.1296 29.1915H20.5726C25.3734 26.268 30.7425 22.3036 34.9287 18.4428L37.6776 22.2218C38.4172 23.2388 39.8452 23.461 40.8586 22.7239L46.5593 18.5775C46.5593 18.5775 46.5593 18.5775 46.5593 18.5774C47.5745 17.839 47.7998 16.4119 47.0612 15.3964L46.0057 13.9452L47.1519 13.1117C48.4514 12.1663 48.6892 10.2709 47.6821 8.88633L42.9285 2.35101C41.9213 0.966618 40.045 0.608962 38.7455 1.55419L37.5992 2.38802L36.5437 0.93696C35.8053 -0.0786776 34.3783 -0.303688 33.3627 0.434746L27.6621 4.58113C26.6468 5.31957 26.4215 6.74658 27.1601 7.7621L29.9089 11.5411C24.3828 14.6522 18.0446 19.2611 13.3765 23.5664L11.3544 20.7867C10.2157 19.2212 8.01256 18.8733 6.4473 20.0122L2.74509 22.705C1.17878 23.8445 0.831398 26.0458 1.97069 27.6122L2.29927 28.064L1.15321 28.8976C-0.172213 29.8615 -0.363594 31.7665 0.622969 33.1229L5.37655 39.658C5.89662 40.3732 6.65888 40.828 7.47181 40.9489V44.4493C7.47181 46.1614 8.77913 47.5545 10.386 47.5545H11.8033V49.3488C11.8033 50.6044 12.8249 51.6259 14.0803 51.6259H21.1296C22.3851 51.6259 23.4066 50.6043 23.4066 49.3488V44.6762C25.8955 44.9658 28.6934 45.1478 31.5671 45.2056C31.5732 45.2058 31.5791 45.2058 31.5851 45.2058C32.0606 45.2058 32.4508 44.8252 32.4605 44.3476C32.4702 43.8641 32.086 43.4641 31.6024 43.4544C28.7048 43.3961 25.8899 43.2096 23.4066 42.9126V37.9046C29.6019 37.1621 37.5261 37.1467 43.8499 37.9046V42.9126C41.3669 43.2096 38.5519 43.3961 35.6542 43.4544C35.1706 43.4641 34.7864 43.8641 34.7961 44.3475C34.8057 44.8252 35.1958 45.2058 35.6715 45.2058C35.6774 45.2058 35.6835 45.2058 35.6894 45.2056C38.5633 45.1478 41.3612 44.9658 43.8499 44.6762V49.3488C43.8499 50.6044 44.8715 51.6259 46.127 51.6259H53.1762C54.4318 51.6259 55.4533 50.6043 55.4533 49.3488V47.5545H56.8706C58.4774 47.5545 59.7847 46.1614 59.7847 44.4493V42.149C59.7847 41.6652 59.3926 41.2732 58.909 41.2732C58.4253 41.2732 58.0332 41.6652 58.0332 42.149V44.4493C58.0332 45.1829 57.5009 45.8029 56.8707 45.8029H55.4534V35.0148H56.8707C57.5008 35.0148 58.0332 35.6346 58.0332 36.3682V38.0619C58.0331 38.5456 58.4253 38.9375 58.909 38.9375ZM39.7757 2.97069C40.2851 2.6003 41.0806 2.78818 41.5119 3.38147L46.2655 9.91679C46.697 10.51 46.6311 11.3245 46.1215 11.6952L44.9753 12.5288C44.2657 11.5528 39.3508 4.79587 38.6295 3.80428L39.7757 2.97069ZM28.5766 6.73198C28.4091 6.5016 28.4622 6.16543 28.6924 5.99787L34.3931 1.85136C34.6244 1.68333 34.9601 1.73763 35.1271 1.96731C35.4816 2.45469 43.6508 13.6858 44.0739 14.2675C44.0741 14.2678 44.0742 14.268 44.0745 14.2682L45.6446 16.4268C45.8122 16.6572 45.7592 16.9933 45.5288 17.1609L39.828 21.3074C39.5966 21.4755 39.2638 21.4249 39.0941 21.1914C38.7486 20.7166 28.9936 7.30519 28.5766 6.73198ZM30.9459 12.9671L33.8918 17.017C29.3355 21.2459 22.9443 25.9207 17.359 29.0416L14.4136 24.9922C18.9577 20.7745 25.3527 16.0922 30.9459 12.9671ZM7.47181 36.3681V39.1481C7.2113 39.051 6.97053 38.8715 6.79328 38.6276L2.0397 32.0924C1.5884 31.4722 1.68928 30.6737 2.18367 30.3141L3.32974 29.4805C3.46869 29.6716 4.55661 31.1672 7.62302 35.383C7.51863 35.7148 7.47181 36.0571 7.47181 36.3681ZM11.8033 45.8027H10.386C9.75589 45.8027 9.22343 45.1829 9.22343 44.4492C9.22343 43.658 9.22343 37.1928 9.22343 36.368C9.22343 36.062 9.32443 35.7317 9.52445 35.4723C9.76266 35.1627 10.0848 35.0145 10.386 35.0145H11.8032V45.8027H11.8033ZM11.8033 31.4684V33.2629H10.386C10.3148 33.2629 10.2444 33.2665 10.1745 33.272C10.1621 33.273 10.1497 33.2739 10.1374 33.2751C9.5951 33.3241 9.09487 33.5318 8.67766 33.8547L3.38731 26.5816C2.81608 25.7965 2.99018 24.6927 3.77544 24.1215L7.47765 21.4287C8.2594 20.8597 9.3688 21.0345 9.93781 21.817C10.5755 22.6935 14.6193 28.2532 15.3017 29.1913H14.0802C12.8249 29.1913 11.8033 30.2128 11.8033 31.4684ZM21.6551 49.3487C21.6551 49.6335 21.4145 49.8742 21.1297 49.8742H14.0805C13.7957 49.8742 13.555 49.6335 13.555 49.3487C13.555 48.5245 13.555 32.0059 13.555 31.4686C13.555 31.1838 13.7957 30.9431 14.0805 30.9431C15.8627 30.9431 16.8467 30.9431 17.3589 30.9431C17.7281 30.9431 17.8524 30.9431 17.8534 30.9431C18.3655 30.9431 19.3489 30.9431 21.1297 30.9431C21.4145 30.9431 21.6551 31.1838 21.6551 31.4686C21.6551 32.5523 21.6551 48.6823 21.6551 49.3487ZM53.7018 49.3487C53.7018 49.6335 53.4611 49.8742 53.1763 49.8742H46.1271C45.8423 49.8742 45.6017 49.6335 45.6017 49.3487V31.4686C45.6017 31.1838 45.8423 30.9431 46.1271 30.9431H53.1763C53.4611 30.9431 53.7018 31.1838 53.7018 31.4686C53.7018 32.5473 53.7018 48.77 53.7018 49.3487Z" fill="#981F62"/>
</svg>
