<svg width="70" height="70" viewBox="0 0 70 70" fill="none" xmlns="http://www.w3.org/2000/svg">
<path d="M61.6607 45.9206C62.1069 45.9206 62.4686 45.559 62.4686 45.1128V43.5503C62.4686 41.9708 61.2626 40.6858 59.7803 40.6858H58.4728V39.0304C58.4728 37.8721 57.5303 36.9297 56.3721 36.9297H49.8691C48.7108 36.9297 47.7684 37.8722 47.7684 39.0304V43.3414C41.9592 42.6637 34.7281 42.6627 28.9091 43.3414V39.0304C28.9091 37.8721 27.9667 36.9297 26.8085 36.9297H26.2946C30.7235 34.2327 35.6766 30.5756 39.5384 27.0138L42.0744 30.5C42.7567 31.4383 44.074 31.6433 45.0089 30.9632L50.2679 27.1381C50.2679 27.1381 50.2679 27.1381 50.2679 27.138C51.2045 26.4568 51.4123 25.1403 50.731 24.2035L49.7572 22.8648L50.8145 22.0958C52.0134 21.2237 52.2328 19.4751 51.3037 18.1978L46.9184 12.1688C45.9892 10.8917 44.2583 10.5618 43.0595 11.4338L42.002 12.203L41.0283 10.8644C40.3471 9.92742 39.0307 9.71984 38.0938 10.4011L32.8348 14.2262C31.8982 14.9074 31.6904 16.2238 32.3718 17.1607L34.9076 20.6469C29.8096 23.5169 23.9625 27.7687 19.6561 31.7404L17.7907 29.1762C16.7402 27.732 14.7078 27.411 13.2638 28.4617L9.84844 30.9458C8.40349 31.997 8.08302 34.0278 9.13404 35.4728L9.43716 35.8896L8.3799 36.6586C7.15717 37.5478 6.98062 39.3053 7.89074 40.5565L12.276 46.5853C12.7558 47.2451 13.459 47.6646 14.2089 47.7761V51.0053C14.2089 52.5848 15.415 53.8699 16.8973 53.8699H18.2048V55.5253C18.2048 56.6836 19.1472 57.6259 20.3054 57.6259H26.8085C27.9668 57.6259 28.9091 56.6835 28.9091 55.5253V51.2146C31.2051 51.4818 33.7862 51.6497 36.4373 51.703C36.4429 51.7033 36.4484 51.7033 36.4539 51.7033C36.8925 51.7033 37.2525 51.3521 37.2615 50.9115C37.2704 50.4654 36.916 50.0965 36.4698 50.0876C33.7968 50.0337 31.2 49.8617 28.9091 49.5877V44.9678C34.6244 44.2828 41.9346 44.2686 47.7684 44.9678V49.5877C45.4778 49.8617 42.8809 50.0337 40.2077 50.0876C39.7616 50.0965 39.4071 50.4654 39.4161 50.9114C39.425 51.3521 39.7848 51.7033 40.2237 51.7033C40.2291 51.7033 40.2347 51.7033 40.2402 51.703C42.8914 51.6497 45.4725 51.4818 47.7684 51.2146V55.5253C47.7684 56.6836 48.7109 57.6259 49.8691 57.6259H56.3721C57.5304 57.6259 58.4728 56.6835 58.4728 55.5253V53.8699H59.7803C61.2626 53.8699 62.4686 52.5848 62.4686 51.0053V48.8833C62.4686 48.437 62.1069 48.0754 61.6607 48.0754C61.2146 48.0754 60.8528 48.437 60.8528 48.8833V51.0053C60.8528 51.6821 60.3617 52.254 59.7804 52.254H58.4729V42.3018H59.7804C60.3616 42.3018 60.8528 42.8736 60.8528 43.5504V45.1129C60.8527 45.559 61.2146 45.9206 61.6607 45.9206ZM44.0099 12.7405C44.4799 12.3988 45.2137 12.5722 45.6116 13.1195L49.9968 19.1484C50.395 19.6957 50.3341 20.4471 49.864 20.789L48.8066 21.558C48.152 20.6577 43.6179 14.4243 42.9525 13.5095L44.0099 12.7405ZM33.6785 16.2104C33.524 15.9979 33.5729 15.6877 33.7854 15.5331L39.0443 11.7079C39.2577 11.5529 39.5674 11.603 39.7215 11.8149C40.0485 12.2645 47.5848 22.6254 47.9751 23.1621C47.9753 23.1623 47.9754 23.1625 47.9756 23.1627L49.4241 25.154C49.5787 25.3666 49.5298 25.6767 49.3172 25.8313L44.0581 29.6565C43.8446 29.8116 43.5376 29.7649 43.3811 29.5495C43.0624 29.1114 34.0632 16.7392 33.6785 16.2104ZM35.8642 21.9624L38.5819 25.6985C34.3786 29.5997 28.4826 33.9124 23.3301 36.7914L20.6129 33.0558C24.8049 29.1649 30.7044 24.8454 35.8642 21.9624ZM14.2089 43.5503V46.1149C13.9686 46.0253 13.7465 45.8597 13.583 45.6348L9.1977 39.6059C8.78137 39.0337 8.87444 38.2971 9.33052 37.9653L10.3878 37.1963C10.516 37.3727 11.5196 38.7523 14.3484 42.6416C14.2521 42.9476 14.2089 43.2634 14.2089 43.5503ZM18.2048 52.2539H16.8973C16.316 52.2539 15.8248 51.6821 15.8248 51.0052C15.8248 50.2753 15.8248 44.3111 15.8248 43.5502C15.8248 43.2679 15.918 42.9632 16.1025 42.7239C16.3223 42.4383 16.6195 42.3016 16.8973 42.3016H18.2047V52.2539H18.2048ZM18.2048 39.0303V40.6857H16.8973C16.8317 40.6857 16.7667 40.689 16.7022 40.6941C16.6908 40.695 16.6794 40.6958 16.668 40.6969C16.1677 40.7421 15.7062 40.9338 15.3214 41.2316L10.4409 34.5221C9.91393 33.7978 10.0745 32.7795 10.799 32.2525L14.2143 29.7684C14.9355 29.2435 15.9589 29.4047 16.4839 30.1266C17.0721 30.9352 20.8027 36.0641 21.4322 36.9295H20.3053C19.1472 36.9295 18.2048 37.8719 18.2048 39.0303ZM27.2933 55.5251C27.2933 55.7879 27.0713 56.0099 26.8086 56.0099H20.3055C20.0428 56.0099 19.8208 55.7879 19.8208 55.5251C19.8208 54.7648 19.8208 39.5261 19.8208 39.0304C19.8208 38.7676 20.0428 38.5456 20.3055 38.5456C21.9497 38.5456 22.8574 38.5456 23.33 38.5456C23.6706 38.5456 23.7852 38.5456 23.7862 38.5456C24.2585 38.5456 25.1657 38.5456 26.8086 38.5456C27.0713 38.5456 27.2933 38.7676 27.2933 39.0304C27.2933 40.0301 27.2933 54.9104 27.2933 55.5251ZM56.857 55.5251C56.857 55.7879 56.635 56.0099 56.3722 56.0099H49.8692C49.6065 56.0099 49.3845 55.7879 49.3845 55.5251V39.0304C49.3845 38.7676 49.6065 38.5456 49.8692 38.5456H56.3722C56.635 38.5456 56.857 38.7676 56.857 39.0304C56.857 40.0255 56.857 54.9913 56.857 55.5251Z" fill="#981F62"/>
</svg>
