<svg width="83" height="83" viewBox="0 0 83 83" fill="none" xmlns="http://www.w3.org/2000/svg">
<path d="M52.9329 36.9939C53.6531 36.1454 55.5488 35.5659 57.3451 35.6487C59.0462 35.7274 63.2596 35.5494 65.6726 32.2382C71.881 23.7244 72.775 16.0384 70.0475 13.5261C68.9796 12.541 66.5873 12.2264 63.8018 12.7107C60.9377 13.2074 53.7938 15.2893 49.3031 23.8652C48.6119 25.1855 48.8975 27.2839 49.1251 28.9685C49.1996 29.5189 49.2783 30.0901 49.2658 30.3219C49.2162 31.4436 48.7278 32.3707 47.4571 33.7324C46.1947 35.0858 19.4654 62.4111 19.1923 62.6843C19.1757 62.7009 19.1633 62.7174 19.1467 62.734C18.1327 63.9012 17.6981 65.2587 17.9009 66.666C18.1162 68.1891 19.0681 69.5301 19.8959 70.064L20.0325 70.1551C21.1541 70.9042 22.2344 71.2768 23.2567 71.2768C24.6557 71.2768 25.9595 70.5814 27.1473 69.1866C28.8112 67.2413 38.3928 55.2094 45.3918 46.4265C49.2451 41.5964 52.5729 37.4202 52.9329 36.9939ZM25.4214 67.7131C23.7617 69.6543 22.52 69.0831 21.2949 68.2636L21.1334 68.156C20.9596 68.0442 20.2974 67.3365 20.1608 66.3514C20.0573 65.6064 20.2808 64.9193 20.852 64.253C22.2634 62.8085 47.8545 36.6504 49.1293 35.2845C50.3337 33.9931 51.4595 32.5114 51.5505 30.4171C51.5671 29.9825 51.4885 29.3989 51.3891 28.658C51.2443 27.5861 50.9752 25.5952 51.327 24.9164C55.3501 17.2346 61.6703 15.3845 64.1992 14.9457C66.6039 14.5277 68.1974 14.9002 68.5119 15.1899C69.7039 16.2909 70.0516 22.3669 63.8391 30.8889C62.0759 33.3061 58.7854 33.422 57.4527 33.364C55.3253 33.2688 52.5687 33.8938 51.1987 35.5121C50.8179 35.9591 47.8007 39.7546 43.6203 44.9986C36.6296 53.7856 27.0604 65.7968 25.4214 67.7131Z" fill="#981F62"/>
<path d="M50.1268 44.8911C49.6591 44.4689 48.943 44.5061 48.5209 44.9697C48.0987 45.4374 48.1359 46.1576 48.5995 46.5756C48.7816 46.7412 66.7529 63.0113 68.1974 64.3979C68.6444 64.8283 68.8844 65.3912 68.8844 66.0286C68.8844 66.8316 68.5119 67.6345 67.829 68.2926C66.0782 69.9813 64.1495 68.2306 63.7811 67.8622C62.9699 67.051 52.3825 55.4619 46.8942 49.4439C46.4721 48.9803 45.7519 48.9472 45.2842 49.3694C44.8206 49.7916 44.7875 50.5117 45.2097 50.9794C45.8595 51.6913 61.1198 68.4251 62.1711 69.4722C63.2307 70.5318 64.7 71.2851 66.2107 71.2851C67.3034 71.2851 68.4126 70.8919 69.4101 69.9317C70.5442 68.839 71.165 67.4524 71.165 66.0245C71.165 64.7704 70.6725 63.6074 69.7785 62.7547C68.305 61.3516 50.8718 45.5616 50.1268 44.8911Z" fill="#981F62"/>
<path d="M29.9163 37.681C31.5636 37.5816 32.619 37.5568 33.4965 38.277C34.2663 38.9061 35.6984 40.4789 36.1827 41.0294C36.4062 41.286 36.7207 41.4143 37.0353 41.4143C37.3043 41.4143 37.5692 41.3191 37.7886 41.1287C38.2604 40.7148 38.306 39.9946 37.8921 39.5228C37.8176 39.4359 36.0088 37.3871 34.9369 36.5138C33.3227 35.1935 31.5181 35.3011 29.7756 35.4087C27.582 35.5411 25.5166 35.6694 23.2071 33.2399C20.9348 30.8476 17.6278 26.6921 15.4383 23.9438C14.9416 23.3188 14.507 22.7725 14.1594 22.342C14.1387 22.3172 14.1304 22.2882 14.1345 22.2593C14.1387 22.2303 14.1511 22.2013 14.1759 22.1848C14.2256 22.1475 14.2918 22.1517 14.3332 22.193C16.382 24.2625 21.1169 28.8609 23.0581 30.74C23.9769 31.6298 25.4173 31.6298 26.332 30.7358L30.3509 26.808C30.8517 26.3196 31.129 25.6656 31.1373 24.9661C31.1456 24.2667 30.8807 23.6086 30.3882 23.1077L22.0565 14.6353C21.9778 14.5567 21.9654 14.4698 21.9654 14.4077C21.9654 14.3456 21.9861 14.2587 22.0689 14.1842C22.1144 14.1428 22.1889 14.1387 22.2344 14.18C27.404 18.6253 33.124 23.5796 33.691 24.1425C35.0238 25.4752 35.6156 27.0066 35.3839 32.1141C35.3797 32.1762 35.3839 32.2341 35.388 32.2962C35.835 36.1868 39.618 38.3556 39.7794 38.4467C40.3258 38.753 41.017 38.5626 41.3274 38.0162C41.6378 37.4699 41.4433 36.7745 40.9011 36.4641C40.8721 36.4476 38.0245 34.792 37.6644 32.1224C37.8962 26.8825 37.3168 24.544 35.3052 22.5324C34.5602 21.7874 26.957 15.2355 23.7245 12.4541C22.8015 11.6594 21.4273 11.6843 20.5292 12.5079C20.0077 12.988 19.7097 13.642 19.6931 14.3497C19.6766 15.0575 19.9373 15.7239 20.434 16.2288L28.7698 24.7095C28.8485 24.7923 28.865 24.8834 28.865 24.9454C28.865 25.0075 28.8485 25.1027 28.7657 25.1814L28.4346 25.5042L18.4639 15.5625C18.141 15.2396 17.6154 15.2396 17.2925 15.5625C16.9697 15.8853 16.9697 16.4109 17.2925 16.7338L27.2467 26.659L26.5141 27.375L16.4068 17.367C16.0798 17.0442 15.5583 17.0483 15.2355 17.3712C14.9126 17.6981 14.9168 18.2197 15.2396 18.5425L25.3304 28.5339L24.7426 29.1092C24.7137 29.1382 24.6723 29.1382 24.6433 29.1092C23.1326 27.644 18.0417 22.7063 15.9515 20.5954C15.0865 19.7221 13.7082 19.6435 12.748 20.4133C12.2472 20.8148 11.9367 21.3859 11.8664 22.0192C11.796 22.6566 11.9823 23.2774 12.3838 23.7741C12.7273 24.2004 13.1619 24.7426 13.6544 25.3635C15.8687 28.1448 19.2171 32.3459 21.5557 34.8085C24.5978 38.0038 27.5447 37.8258 29.9163 37.681Z" fill="#981F62"/>
</svg>
