<svg width="70" height="70" viewBox="0 0 70 70" fill="none" xmlns="http://www.w3.org/2000/svg">
<path d="M44.7616 31.283C45.3706 30.5655 46.9736 30.0755 48.4926 30.1455C49.9311 30.212 53.4941 30.0615 55.5346 27.2615C60.7846 20.062 61.5406 13.5625 59.2341 11.438C58.3311 10.605 56.3081 10.339 53.9526 10.7485C51.5306 11.1685 45.4896 12.929 41.6921 20.181C41.1076 21.2975 41.3491 23.072 41.5416 24.4965C41.6046 24.962 41.6711 25.445 41.6606 25.641C41.6186 26.5895 41.2056 27.3735 40.1311 28.525C39.0636 29.6695 16.4606 52.7765 16.2296 53.0075C16.2156 53.0215 16.2051 53.0355 16.1911 53.0495C15.3336 54.0365 14.9661 55.1845 15.1376 56.3745C15.3196 57.6625 16.1246 58.7965 16.8246 59.248L16.9401 59.325C17.8886 59.9585 18.8021 60.2735 19.6666 60.2735C20.8496 60.2735 21.9521 59.6855 22.9566 58.506C24.3636 56.861 32.4661 46.6865 38.3846 39.2595C41.6431 35.175 44.4571 31.6435 44.7616 31.283ZM21.4971 57.26C20.0936 58.9015 19.0436 58.4185 18.0076 57.7255L17.8711 57.6345C17.7241 57.54 17.1641 56.9415 17.0486 56.1085C16.9611 55.4785 17.1501 54.8975 17.6331 54.334C18.8266 53.1125 40.4671 30.9925 41.5451 29.8375C42.5636 28.7455 43.5156 27.4925 43.5926 25.7215C43.6066 25.354 43.5401 24.8605 43.4561 24.234C43.3336 23.3275 43.1061 21.644 43.4036 21.07C46.8056 14.574 52.1501 13.0095 54.2886 12.6385C56.3221 12.285 57.6696 12.6 57.9356 12.845C58.9436 13.776 59.2376 18.914 53.9841 26.1205C52.4931 28.1645 49.7106 28.2625 48.5836 28.2135C46.7846 28.133 44.4536 28.6615 43.2951 30.03C42.9731 30.408 40.4216 33.6175 36.8866 38.052C30.9751 45.4825 22.8831 55.6395 21.4971 57.26Z" fill="#981F62"/>
<path d="M42.3885 37.961C41.993 37.604 41.3875 37.6355 41.0305 38.0275C40.6735 38.423 40.705 39.032 41.097 39.3855C41.251 39.5255 56.448 53.284 57.6695 54.4565C58.0475 54.8205 58.2505 55.2965 58.2505 55.8355C58.2505 56.5145 57.9355 57.1935 57.358 57.75C55.8775 59.178 54.2465 57.6975 53.935 57.386C53.249 56.7 44.296 46.9 39.655 41.811C39.298 41.419 38.689 41.391 38.2935 41.748C37.9015 42.105 37.8735 42.714 38.2305 43.1095C38.78 43.7115 51.6845 57.862 52.5735 58.7475C53.4695 59.6435 54.712 60.2805 55.9895 60.2805C56.9135 60.2805 57.8515 59.948 58.695 59.136C59.654 58.212 60.179 57.0395 60.179 55.832C60.179 54.7715 59.7625 53.788 59.0065 53.067C57.7605 51.8805 43.0185 38.528 42.3885 37.961Z" fill="#981F62"/>
<path d="M25.298 31.864C26.691 31.78 27.5835 31.759 28.3255 32.368C28.9765 32.9 30.1875 34.23 30.597 34.6955C30.786 34.9125 31.052 35.021 31.318 35.021C31.5455 35.021 31.7695 34.9405 31.955 34.7795C32.354 34.4295 32.3925 33.8205 32.0425 33.4215C31.9795 33.348 30.45 31.6155 29.5435 30.877C28.1785 29.7605 26.6525 29.8515 25.179 29.9425C23.324 30.0545 21.5775 30.163 19.6245 28.1085C17.703 26.0855 14.9065 22.5715 13.055 20.2475C12.635 19.719 12.2675 19.257 11.9735 18.893C11.956 18.872 11.949 18.8475 11.9525 18.823C11.956 18.7985 11.9665 18.774 11.9875 18.76C12.0295 18.7285 12.0855 18.732 12.1205 18.767C13.853 20.517 17.857 24.4055 19.4985 25.9945C20.2755 26.747 21.4935 26.747 22.267 25.991L25.6655 22.6695C26.089 22.2565 26.3235 21.7035 26.3305 21.112C26.3375 20.5205 26.1135 19.964 25.697 19.5405L18.6515 12.376C18.585 12.3095 18.5745 12.236 18.5745 12.1835C18.5745 12.131 18.592 12.0575 18.662 11.9945C18.7005 11.9595 18.7635 11.956 18.802 11.991C23.1735 15.75 28.0105 19.9395 28.49 20.4155C29.617 21.5425 30.1175 22.8375 29.9215 27.1565C29.918 27.209 29.9215 27.258 29.925 27.3105C30.303 30.6005 33.502 32.4345 33.6385 32.5115C34.1005 32.7705 34.685 32.6095 34.9475 32.1475C35.21 31.6855 35.0455 31.0975 34.587 30.835C34.5625 30.821 32.1545 29.421 31.85 27.1635C32.046 22.7325 31.556 20.755 29.855 19.054C29.225 18.424 22.7955 12.8835 20.062 10.5315C19.2815 9.85951 18.1195 9.88051 17.36 10.577C16.919 10.983 16.667 11.536 16.653 12.1345C16.639 12.733 16.8595 13.2965 17.2795 13.7235L24.3285 20.895C24.395 20.965 24.409 21.042 24.409 21.0945C24.409 21.147 24.395 21.2275 24.325 21.294L24.045 21.567L15.6135 13.16C15.3405 12.887 14.896 12.887 14.623 13.16C14.35 13.433 14.35 13.8775 14.623 14.1505L23.0405 22.5435L22.421 23.149L13.874 14.686C13.5975 14.413 13.1565 14.4165 12.8835 14.6895C12.6105 14.966 12.614 15.407 12.887 15.68L21.42 24.129L20.923 24.6155C20.8985 24.64 20.8635 24.64 20.839 24.6155C19.5615 23.3765 15.2565 19.201 13.489 17.416C12.7575 16.6775 11.592 16.611 10.78 17.262C10.3565 17.6015 10.094 18.0845 10.0345 18.62C9.97504 19.159 10.1325 19.684 10.472 20.104C10.7625 20.4645 11.13 20.923 11.5465 21.448C13.419 23.8 16.2505 27.3525 18.228 29.435C20.8005 32.137 23.2925 31.9865 25.298 31.864Z" fill="#981F62"/>
</svg>
