<svg width="319" height="97" viewBox="0 0 319 97" fill="none" xmlns="http://www.w3.org/2000/svg">
<path d="M145.908 52.9456C142.726 52.9456 140.854 51.6888 139.717 49.7635H139.664C136.963 51.9295 132.15 53.3734 127.644 53.3734C119.595 53.3734 114.729 49.71 114.729 43.4528C114.729 36.6608 120.023 32.6364 137.926 30.1095V29.3875C137.926 26.7402 136.723 24.7615 133.474 24.7615C131.548 24.7615 129.57 25.5503 126.628 26.9943C124.944 27.8366 122.056 29.1602 120.625 29.1602C117.737 29.1602 116.36 26.8204 116.36 24.2935C116.36 23.3309 116.788 22.1275 118.459 21.0446C121.28 19.1861 126.628 17.6218 133.54 17.6218C143.154 17.6218 149.411 20.3894 149.411 31.3796V35.1099C149.411 41.4741 149.598 42.9849 150.494 44.9637C150.922 45.9263 151.523 47.3703 151.523 48.0254C151.497 51.3947 149.264 52.9456 145.908 52.9456ZM137.792 36.487C129.503 37.5032 126.548 39.7894 126.548 42.7309C126.548 44.7765 127.992 46.1536 130.813 46.1536C133.099 46.1536 135.506 45.5519 138.14 43.9342C137.846 41.7147 137.725 38.1717 137.792 36.487Z" fill="#27224F"/>
<path d="M189.775 52.9455C186.112 52.9455 183.879 51.2074 183.879 48.3195V34.2007C183.879 31.3796 183.638 29.2805 182.796 27.9568C182.141 26.9942 181.178 26.3925 179.493 26.3925C178.116 26.3925 176.606 26.7535 175.402 27.3552C174.025 28.0772 172.461 29.1602 171.017 30.4169V48.3863C171.017 51.3946 168.851 52.9455 165.187 52.9455C161.524 52.9455 159.412 51.3278 159.412 48.3863V22.4751C159.412 19.5337 161.578 18.0229 165.308 18.0229C169.519 18.0229 170.709 20.0685 170.83 22.1141H171.017C172.996 20.7905 175.041 19.7075 177.154 18.8652C179.012 18.0897 181.365 17.6084 183.759 17.6084C187.729 17.6084 190.791 18.6379 192.65 20.7905C194.508 22.9564 195.471 26.2588 195.471 30.8314V48.3195C195.484 51.2074 193.385 52.9455 189.775 52.9455Z" fill="#27224F"/>
<path d="M232.747 52.9456C230.768 52.9456 229.685 52.5311 228.963 51.9295C228.241 51.3278 227.933 50.7262 227.572 49.8839C225.353 51.622 222.224 53.3734 218.013 53.3734C207.918 53.3734 202.503 45.4985 202.503 35.3372C202.503 22.181 211.1 17.6085 217.652 17.6085C221.676 17.6085 224.564 18.8118 227.091 20.5499V10.5758C227.091 7.56752 229.257 6.07007 232.92 6.07007C236.53 6.07007 238.696 7.68785 238.696 10.6426V47.6644C238.696 51.4482 236.958 52.9456 232.747 52.9456ZM227.158 30.9518C227.158 27.6494 223.615 25.6038 220.901 25.6038C217.959 25.6038 214.349 27.7697 214.349 35.5779C214.349 42.6774 217.959 45.2578 221.262 45.2578C224.631 45.2578 227.091 42.3699 227.091 39.1878L227.158 30.9518Z" fill="#27224F"/>
<path d="M275.838 37.931H258.056C258.537 41.7147 260.944 44.8968 265.209 44.8968C268.151 44.8968 270.677 44.0545 272.362 43.1587C274.528 41.9554 275.905 41.1799 277.71 41.1799C280.17 41.1799 281.855 42.5036 281.855 45.2712C281.855 47.1965 280.531 48.7608 279.087 49.7234C275.665 52.13 270.851 53.3868 265.089 53.3868C259.741 53.3868 254.566 52.0632 251.144 48.8142C248.082 45.8728 246.09 41.8484 246.09 35.3506C246.09 29.8153 247.587 25.6706 251.251 22.0072C254.139 19.1861 258.885 17.6218 264.768 17.6218C269.701 17.6218 274.448 18.9989 277.75 22.2479C281.293 25.7909 282.617 30.2967 282.617 32.2888C282.63 36.3667 280.103 37.931 275.838 37.931ZM271.092 31.5C271.092 31.0855 270.196 27.5291 268.632 25.9781C267.375 24.708 266.172 24.1732 264.661 24.1732C261.532 24.1732 258.778 26.2188 258.056 32.222H270.076C270.731 32.222 271.038 31.9813 271.038 31.5H271.092Z" fill="#27224F"/>
<path d="M314.906 50.1244C312.258 52.1032 308.595 53.3733 303.782 53.3733C298.848 53.3733 293.621 51.809 290.733 49.8837C289.356 48.9211 288.687 47.7846 288.687 46.6348C288.687 44.2282 290.305 42.7842 292.297 42.7842C294.516 42.7842 297.525 44.2817 299.142 45.0037C300.76 45.7256 302.926 46.0866 303.822 46.0866C306.041 46.0866 307.245 44.9368 307.245 43.4394C307.245 41.0996 304.236 39.8963 298.888 38.2785C293.594 36.6473 288.727 33.9466 288.727 27.9969C288.727 24.6945 290.465 21.9937 293.179 20.2422C295.76 18.5576 298.955 17.595 303.635 17.595C307.298 17.595 311.389 18.4908 314.157 19.8813C316.015 20.8439 316.858 22.3414 316.858 23.2505C316.858 25.6571 315.481 27.2749 313.128 27.2749C311.443 27.2749 309.344 26.3123 307.058 25.47C305.614 24.9351 304.357 24.5073 302.846 24.5073C300.68 24.5073 299.958 25.47 299.958 26.5529C299.958 27.8766 300.68 28.4114 301.816 29.0799C303.314 29.8553 305.239 30.457 307.886 31.2458C313.355 32.8101 318.89 35.5109 318.89 42.0622C318.93 45.2577 317.553 48.0788 314.906 50.1244Z" fill="#27224F"/>
<path d="M124.703 92.5077C127.203 92.5077 129.917 91.7323 129.917 88.2828C129.917 87.4271 129.569 86.4778 128.847 85.7826C127.938 84.8333 126.427 84.4055 123.499 83.4963C120.531 82.5871 118.98 81.8117 117.857 80.5682C116.828 79.4452 116.346 78.068 116.346 76.5572C116.346 74.4046 117.296 72.7601 118.887 71.7306C120.438 70.7412 122.376 70.1797 125.224 70.1797C128.968 70.1797 131.428 71.5568 132.457 72.8537C133.407 74.057 132.752 75.7818 131.161 75.7818C130.519 75.7818 129.917 75.4742 129.302 74.6988C128.62 73.7896 127.19 73.0676 125.171 73.0676C123.874 73.0676 122.59 73.2815 121.721 73.8431C121.039 74.3645 120.598 75.1801 120.598 76.2096C120.598 76.9851 121.026 77.8006 121.761 78.4023C122.67 79.1778 123.62 79.5655 126.802 80.5148C129.944 81.464 131.628 82.2796 132.792 83.5364C133.701 84.5258 134.343 85.9564 134.343 87.8015C134.343 90.1279 133.567 91.8526 131.976 93.2297C130.171 94.7807 127.631 95.3823 124.823 95.3823C119.863 95.3823 117.804 93.8314 116.681 92.4944C115.477 91.1172 116.427 89.5262 117.844 89.5262C118.539 89.5262 118.927 89.6599 119.569 90.3418C120.612 91.5183 122.898 92.5077 124.703 92.5077Z" fill="#27224F"/>
<path d="M155.294 92.6815C153.876 94.3261 150.815 95.3957 148.141 95.3957C142.325 95.3957 139.865 92.8554 139.865 88.7106C139.865 83.4562 143.662 80.4345 154.946 79.0173V78.3221C154.946 75.0063 153.863 73.1077 150.333 73.1077C148.087 73.1077 146.67 74.1773 145.988 75.4742C145.386 76.6374 144.691 77.2391 143.581 77.2391C141.937 77.2391 141.081 75.6079 141.857 74.0971C142.672 72.5061 144.999 70.1797 150.427 70.1797C156.283 70.1797 159.305 72.252 159.305 79.2713V88.7507C159.305 91.5451 160.16 92.1601 160.16 93.3099C160.16 94.6871 159.345 95.1684 158.141 95.1684C156.724 95.1684 155.775 94.2592 155.387 92.6682H155.294V92.6815ZM154.959 81.8651C147.378 82.9347 144.357 85.0071 144.357 88.3229C144.357 90.6894 145.56 92.3339 148.97 92.3339C150.387 92.3339 154.959 91.4248 154.959 88.5368V81.8651Z" fill="#27224F"/>
<path d="M168.089 64.9786C168.089 63.3475 168.784 62.3447 170.241 62.3447C171.752 62.3447 172.434 63.3742 172.434 64.9252V92.4943C172.434 94.0452 171.739 95.0747 170.241 95.0747C168.771 95.0747 168.089 94.0853 168.089 92.4408V64.9786Z" fill="#27224F"/>
<path d="M193.037 94.0986C191.446 94.9142 189.628 95.3955 187.783 95.3955C185.456 95.3955 183.478 94.7404 182.315 93.4168C181.191 92.1199 180.63 90.2347 180.63 87.3467V73.121C180.63 71.4764 181.325 70.4871 182.782 70.4871C184.293 70.4871 184.975 71.5166 184.975 73.0675V85.6487C184.975 87.5473 185.109 89.272 185.924 90.3416C186.526 91.077 187.569 91.6786 189.2 91.6786C190.403 91.6786 191.781 91.331 193.077 90.6893C194.241 90.1277 196.781 88.3228 196.781 87.3334V73.121C196.781 71.4764 197.476 70.4871 198.934 70.4871C200.444 70.4871 201.126 71.5166 201.126 73.0675V92.4942C201.126 94.0452 200.431 95.0747 198.934 95.0747C197.463 95.0747 196.781 94.0853 196.781 92.4407V91.2775C195.845 92.3739 194.12 93.497 193.037 94.0986Z" fill="#27224F"/>
<path d="M217.037 95.3956C210.365 95.3956 207.21 90.3551 207.21 82.7742C207.21 74.3778 211.475 70.193 216.903 70.193C219.751 70.193 222.331 71.4498 223.922 73.1611V64.9786C223.922 63.3475 224.618 62.3447 226.075 62.3447C227.586 62.3447 228.268 63.3742 228.268 64.9385V92.5077C228.268 94.0586 227.572 95.0881 226.075 95.0881C224.604 95.0881 223.789 93.9249 224.003 92.2402H223.922C222.679 93.5906 220.607 95.3956 217.037 95.3956ZM217.852 91.9461C221.863 91.9461 223.922 88.4966 223.922 87.7212V77.5064C223.922 76.5972 221.074 73.6291 217.799 73.6291C213.921 73.6291 211.675 77.0385 211.675 82.8544C211.675 88.5367 213.962 91.9461 217.799 91.9461H217.852Z" fill="#27224F"/>
<path d="M97 48.4933C97 48.8944 96.9866 49.2821 96.9866 49.6833H97V91.9595C97 94.7405 94.7404 97 91.9595 97H91.9194C84.3653 96.7593 77.2524 94.8073 70.9551 91.5049C64.2433 95.0212 56.609 97 48.4933 97C40.605 97 33.1578 95.1148 26.5664 91.7723C26.553 91.7723 26.553 91.7723 26.553 91.7589C26.3926 91.6787 26.2321 91.5985 26.085 91.5183C26.0717 91.5183 26.0583 91.5049 26.0449 91.5049C25.8979 91.4247 25.7508 91.3445 25.6037 91.2642C25.5903 91.2509 25.577 91.2509 25.5636 91.2375C25.4165 91.1573 25.2695 91.077 25.1224 90.9968C25.109 90.9835 25.0957 90.9835 25.0823 90.9701C24.9352 90.8899 24.7748 90.7963 24.6277 90.7161C24.6143 90.7161 24.6143 90.7027 24.601 90.7027C23.6383 90.1545 22.7024 89.5796 21.7799 88.9779C21.7665 88.9646 21.7398 88.9512 21.7264 88.9378C21.5927 88.8576 21.4724 88.764 21.3387 88.6704C21.3119 88.6571 21.2852 88.6303 21.2451 88.617C21.1247 88.5367 21.0044 88.4565 20.8841 88.3763C20.8573 88.3495 20.8172 88.3228 20.7771 88.2961C20.6568 88.2159 20.5498 88.1356 20.4429 88.0554C20.4028 88.0287 20.376 88.0019 20.3359 87.9752C20.2289 87.895 20.1086 87.8148 20.0017 87.7345C19.9749 87.7078 19.9348 87.681 19.8947 87.6543C19.7877 87.5741 19.6674 87.4939 19.5604 87.4136C19.5203 87.3869 19.4936 87.3602 19.4668 87.3468C19.3465 87.2532 19.2262 87.173 19.1192 87.0794C19.0925 87.066 19.0657 87.0393 19.039 87.0259C18.9053 86.9189 18.7716 86.8254 18.6379 86.7184C18.6245 86.705 18.6245 86.705 18.6112 86.6917C18.3304 86.4644 18.0362 86.2371 17.7555 86.0098C17.7421 85.9964 17.7287 85.983 17.702 85.9697C17.5817 85.8761 17.4613 85.7691 17.341 85.6755C17.3009 85.6488 17.2608 85.6087 17.2207 85.5819C17.1271 85.5017 17.0201 85.4215 16.9265 85.3413C16.8731 85.3012 16.8329 85.2611 16.7795 85.221C16.6992 85.1407 16.6056 85.0739 16.5254 84.9937C16.4719 84.9402 16.4185 84.9001 16.365 84.86C16.2848 84.7931 16.2045 84.7129 16.1243 84.646C16.0708 84.5926 16.0174 84.5524 15.9639 84.499C15.8837 84.4321 15.8034 84.3519 15.7366 84.285C15.6831 84.2316 15.6296 84.1781 15.5762 84.138C15.4959 84.0711 15.4291 84.0043 15.3489 83.9374C15.2954 83.8839 15.2419 83.8305 15.1751 83.777C15.1082 83.7101 15.028 83.6433 14.9611 83.5764C14.9076 83.5229 14.8408 83.4695 14.7873 83.416C14.7205 83.3491 14.6536 83.2823 14.5734 83.2154C14.5199 83.162 14.4664 83.1085 14.3996 83.055C14.3327 82.9881 14.2659 82.9213 14.1857 82.8411C14.1322 82.7876 14.0787 82.7341 14.0252 82.6806C13.945 82.6004 13.8782 82.5202 13.7979 82.4533C13.691 82.3464 13.584 82.2394 13.477 82.1325C13.4102 82.0656 13.3567 82.0121 13.2899 81.9453C13.223 81.8784 13.1562 81.8116 13.0893 81.7314C13.0358 81.6779 12.9824 81.611 12.9289 81.5575C12.862 81.4907 12.7952 81.4105 12.7283 81.3436C12.6748 81.2901 12.6214 81.2367 12.5813 81.1698C12.5144 81.0896 12.4476 81.0227 12.3807 80.9425C12.3272 80.889 12.2871 80.8356 12.2336 80.7821C12.1668 80.7019 12.0999 80.635 12.0331 80.5548C11.9796 80.5013 11.9395 80.4478 11.886 80.3943C11.8192 80.3141 11.7523 80.2339 11.6855 80.1537C11.6453 80.1002 11.5919 80.0467 11.5518 79.9932C11.4849 79.913 11.4181 79.8328 11.3512 79.7526C11.3111 79.6991 11.271 79.6456 11.2175 79.6055C11.1507 79.5253 11.0838 79.4317 11.0036 79.3515C10.9635 79.298 10.9234 79.2579 10.8833 79.2044C10.8164 79.1108 10.7362 79.0306 10.6693 78.937C10.6426 78.8969 10.6025 78.8568 10.5757 78.8167C10.4955 78.7231 10.4153 78.6161 10.3351 78.5225C10.3217 78.5092 10.3083 78.4824 10.295 78.4691C9.89387 77.961 9.5195 77.4529 9.14514 76.9449C9.13177 76.9315 9.1184 76.9181 9.10503 76.8914C9.02481 76.7844 8.94459 76.6641 8.86437 76.5571C8.83763 76.5304 8.82426 76.5037 8.81089 76.4769C8.73067 76.37 8.65045 76.263 8.5836 76.1427C8.55686 76.1026 8.54349 76.0758 8.51675 76.0357C8.43653 75.9287 8.36968 75.8218 8.28945 75.7148C8.26271 75.6747 8.23597 75.648 8.2226 75.6079C8.15575 75.5009 8.07553 75.3939 8.00868 75.2736C7.98194 75.2335 7.9552 75.2068 7.94183 75.1666C7.86161 75.0597 7.79476 74.9394 7.71454 74.8324C7.6878 74.8057 7.67443 74.7655 7.66106 74.7388C7.58084 74.6185 7.51399 74.4981 7.43377 74.3778C7.4204 74.3511 7.40703 74.3377 7.39366 74.311C7.31344 74.1773 7.23322 74.0569 7.153 73.9232C7.153 73.9232 7.153 73.9099 7.13963 73.9099C6.60482 73.0542 6.11013 72.1717 5.62881 71.2759C5.62881 71.2759 5.62881 71.2626 5.61544 71.2626C5.53522 71.1155 5.46837 70.9818 5.38815 70.8347C5.37478 70.8214 5.37478 70.808 5.36141 70.7946C5.29456 70.6609 5.21433 70.5139 5.14748 70.3802C5.13411 70.3668 5.13411 70.3534 5.12074 70.3267C5.05389 70.193 4.98704 70.0593 4.92019 69.9122C4.90682 69.8988 4.90682 69.8855 4.89345 69.8587C4.8266 69.7116 4.75975 69.5779 4.6929 69.4309C4.6929 69.4175 4.67953 69.4041 4.67953 69.4041C4.0244 68.027 3.42274 66.6098 2.90131 65.1658C2.83446 65.0054 2.78098 64.8449 2.7275 64.6845C2.7275 64.6711 2.7275 64.6711 2.71413 64.6711C2.66065 64.5107 2.60717 64.3502 2.55369 64.2032V64.1898C1.93866 62.3982 1.4306 60.5665 1.0295 58.6813C0.360992 55.3655 0 51.9695 0 48.4933C0 21.713 21.713 0 48.4933 0C62.1977 0 74.5784 5.68229 83.4026 14.8274C83.416 14.8408 83.416 14.8408 83.416 14.8542C83.5229 14.9611 83.6433 15.0815 83.7502 15.2018L83.7636 15.2152C84.3251 15.8034 84.8733 16.4185 85.3948 17.0335C85.4081 17.0469 85.4215 17.0602 85.4215 17.0736C85.5151 17.1806 85.6087 17.3009 85.7023 17.4079C85.7156 17.4212 85.7424 17.448 85.7557 17.4747C85.8493 17.5817 85.9429 17.702 86.0365 17.809C86.0499 17.8223 86.0633 17.8491 86.0766 17.8624C86.5847 18.4775 87.066 19.1059 87.534 19.7343C87.5473 19.761 87.5741 19.7877 87.6008 19.8145C87.681 19.9214 87.7613 20.0284 87.8281 20.1354C87.8549 20.1755 87.8816 20.2022 87.9083 20.2423C87.9886 20.3493 88.0554 20.4562 88.1356 20.5632C88.1624 20.6033 88.1891 20.63 88.2025 20.6702C88.2827 20.7771 88.3629 20.8974 88.4298 21.0044C88.4431 21.0178 88.4565 21.0445 88.4699 21.0579C88.7239 21.4323 88.9779 21.8066 89.232 22.1943C89.2453 22.2211 89.2721 22.2478 89.2854 22.2746C89.3523 22.3815 89.4192 22.4885 89.486 22.5955C89.5127 22.6356 89.5395 22.689 89.5662 22.7292C89.6331 22.8361 89.6999 22.9297 89.7534 23.0367C89.7801 23.0901 89.8202 23.1436 89.847 23.1837C89.9005 23.2907 89.9673 23.3843 90.0342 23.4912C90.0609 23.5447 90.101 23.5848 90.1278 23.6383C90.1813 23.7453 90.2481 23.8389 90.315 23.9458C90.3417 23.9859 90.3551 24.0261 90.3818 24.0662C90.5957 24.4272 90.7963 24.7881 90.9968 25.1491C91.0236 25.2026 91.0503 25.2561 91.077 25.2962C91.1305 25.3898 91.184 25.4968 91.2375 25.5904C91.2776 25.6572 91.3043 25.7107 91.3311 25.7775C91.3846 25.8711 91.438 25.9647 91.4915 26.0583C91.5183 26.1252 91.5584 26.192 91.5851 26.2455C91.6386 26.3391 91.6787 26.4327 91.7322 26.5263C91.7723 26.5931 91.799 26.66 91.8391 26.7268C91.8926 26.8204 91.9327 26.914 91.9862 27.0076C92.013 27.0744 92.0531 27.1279 92.0798 27.1948C92.1868 27.4221 92.2937 27.6493 92.4007 27.8766C92.4141 27.9034 92.4274 27.9301 92.4408 27.9435C92.4809 28.0371 92.521 28.1307 92.5745 28.2243C92.6146 28.2911 92.6413 28.3713 92.6815 28.4382C92.7216 28.5318 92.7617 28.6254 92.8018 28.719C92.8419 28.7858 92.8686 28.866 92.9087 28.9462C92.9489 29.0398 92.989 29.1334 93.0291 29.2136C93.0692 29.2939 93.0959 29.3607 93.136 29.4409C93.1762 29.5345 93.2163 29.6281 93.2564 29.7083C93.2831 29.7886 93.3232 29.8688 93.35 29.949C93.3901 30.0426 93.4168 30.1228 93.4569 30.2164C93.497 30.2966 93.5238 30.3902 93.5639 30.4704C93.6174 30.5908 93.6575 30.7245 93.7109 30.8448C93.7511 30.9651 93.8045 31.0855 93.8447 31.2058C93.8714 31.286 93.9115 31.3662 93.9382 31.4598C93.9784 31.5534 94.0051 31.6336 94.0318 31.7272C94.0586 31.8074 94.0987 31.901 94.1254 31.9813C94.1522 32.0615 94.1923 32.1551 94.219 32.2487C94.2458 32.3422 94.2859 32.4225 94.3126 32.5027L94.4062 32.7701C94.4329 32.8503 94.4597 32.9439 94.4864 33.0241C94.5132 33.1177 94.5533 33.2113 94.58 33.3049C94.6067 33.3851 94.6335 33.4653 94.6602 33.5589C94.7003 33.6659 94.7271 33.7728 94.7672 33.8798C94.7939 33.96 94.8207 34.0269 94.8474 34.1071C94.9009 34.2675 94.9544 34.428 94.9945 34.5884C95.0212 34.6686 95.0346 34.7355 95.0613 34.8157C95.0881 34.9227 95.1148 35.0163 95.1549 35.1232C95.1817 35.2034 95.2084 35.2837 95.2218 35.3639C95.2485 35.4575 95.2752 35.5644 95.302 35.658C95.3287 35.7382 95.3421 35.8185 95.3688 35.8987C95.3956 35.9923 95.4223 36.0992 95.4491 36.1928C95.4758 36.2731 95.4892 36.3533 95.5159 36.4335C95.5427 36.5405 95.5694 36.6474 95.5961 36.741C95.6095 36.8212 95.6362 36.8881 95.6496 36.9683C95.6764 37.102 95.7165 37.2223 95.7432 37.356C95.7566 37.4095 95.7699 37.463 95.7833 37.5165C95.8234 37.6903 95.8635 37.8641 95.9036 38.0513L95.9438 38.2652C95.9705 38.3855 95.9972 38.4925 96.0106 38.6128C96.024 38.693 96.0373 38.7733 96.0507 38.8535C96.0774 38.9604 96.0908 39.0674 96.1176 39.1744C96.1309 39.2546 96.1443 39.3348 96.171 39.415C96.1978 39.522 96.2112 39.6289 96.2245 39.7359C96.2379 39.8161 96.2513 39.8963 96.2646 39.9766C96.2914 40.0969 96.3047 40.2039 96.3181 40.3242C96.3315 40.391 96.3449 40.4713 96.3582 40.5381C96.385 40.6852 96.4117 40.8323 96.4251 40.9927C96.4385 41.0328 96.4384 41.0595 96.4384 41.0997C96.4652 41.2868 96.4919 41.474 96.5187 41.6478C96.532 41.7147 96.532 41.7815 96.5454 41.8484C96.5588 41.9687 96.5855 42.089 96.5989 42.2227C96.6123 42.303 96.6123 42.3698 96.6256 42.45C96.639 42.5704 96.6524 42.6773 96.6657 42.7977C96.6791 42.8779 96.6791 42.9581 96.6925 43.0383C96.7058 43.1586 96.7192 43.2656 96.7326 43.3859C96.746 43.4662 96.746 43.533 96.7593 43.6132C96.7727 43.7336 96.7861 43.8539 96.7994 43.9876C96.8128 44.0544 96.8128 44.1213 96.8128 44.1881C96.8262 44.362 96.8396 44.5358 96.8529 44.6962C96.8529 44.7229 96.8529 44.7363 96.8529 44.7631C96.8663 44.9502 96.8797 45.1508 96.893 45.338C96.893 45.4048 96.9064 45.4717 96.9064 45.5252C96.9198 45.6589 96.9198 45.7792 96.9331 45.9129C96.9331 45.9797 96.9465 46.06 96.9465 46.1402C96.9599 46.2605 96.9599 46.3808 96.9599 46.5012C96.9599 46.5814 96.9599 46.6616 96.9732 46.7285C96.9732 46.8488 96.9866 46.9691 96.9866 47.0895C96.9866 47.1563 96.9866 47.2365 96.9866 47.3167C96.9866 47.4504 97 47.5841 97 47.7045C97 47.7713 97 47.8382 97 47.8917C97 48.1056 97 48.3061 97 48.4933Z" fill="#FAC033"/>
<path d="M41.474 41.4473C40.2974 41.4473 39.3348 40.498 39.3348 39.3214C39.3348 36.634 37.1555 34.4413 34.4547 34.4413C31.7673 34.4413 29.5746 36.634 29.5746 39.3214C29.5746 40.498 28.6254 41.4473 27.4488 41.4473C26.2722 41.4473 25.3096 40.498 25.3096 39.3214C25.3096 34.2809 29.4142 30.1763 34.4547 30.1763C39.4952 30.1763 43.5998 34.2809 43.5998 39.3214C43.5998 40.4846 42.6506 41.4473 41.474 41.4473Z" fill="#1D1738"/>
<path d="M69.4843 41.4473C68.3078 41.4473 67.3585 40.498 67.3585 39.3214C67.3585 36.634 65.1658 34.4413 62.4784 34.4413C59.791 34.4413 57.5983 36.634 57.5983 39.3214C57.5983 40.498 56.649 41.4473 55.4725 41.4473C54.2959 41.4473 53.3333 40.498 53.3333 39.3214C53.3333 34.2809 57.4379 30.1763 62.4784 30.1763C67.5189 30.1763 71.6235 34.2809 71.6235 39.3214C71.6235 40.4846 70.6743 41.4473 69.4843 41.4473Z" fill="#1D1738"/>
<path d="M48.4666 69.2571C26.4594 69.2571 16.7126 52.3975 16.3115 51.6755C15.7366 50.646 16.0976 49.3491 17.1271 48.7742C18.1566 48.1992 19.4535 48.5602 20.0284 49.5897C20.3894 50.2181 29.0131 64.9921 48.4666 64.9921C68.0003 64.9921 76.8112 49.7368 76.9048 49.5897C77.4797 48.5602 78.7766 48.1992 79.8061 48.7742C80.8356 49.3491 81.1965 50.646 80.6216 51.6755C80.2205 52.3975 70.4737 69.2571 48.4666 69.2571Z" fill="#1D1738"/>
</svg>
