<svg width="232" height="96" viewBox="0 0 232 96" fill="none" xmlns="http://www.w3.org/2000/svg">
<path d="M41.1975 40.8032C40.0572 40.7932 39.135 39.8711 39.1251 38.7308C39.2441 36.1131 37.2213 33.8919 34.5936 33.773C31.9759 33.654 29.7548 35.6768 29.6358 38.3044C29.6259 38.4532 29.6259 38.592 29.6358 38.7407C29.6358 39.881 28.7037 40.8131 27.5634 40.8131C26.4231 40.8131 25.4911 39.881 25.4911 38.7407C25.0845 33.8325 28.7434 29.5191 33.6616 29.1225C38.5797 28.7259 42.8831 32.3749 43.2797 37.293C43.3194 37.7789 43.3194 38.2648 43.2797 38.7506C43.2797 39.8711 42.3477 40.8032 41.1975 40.8032Z" fill="#981F62"/>
<path d="M68.4656 40.803C67.3253 40.7931 66.4031 39.871 66.3932 38.7307C66.5122 36.1129 64.4894 33.8918 61.8618 33.7728C59.244 33.6539 57.0229 35.6766 56.9039 38.3043C56.894 38.453 56.894 38.5919 56.9039 38.7406C56.9039 39.8809 55.9719 40.813 54.8316 40.813C53.6913 40.813 52.7592 39.8809 52.7592 38.7406C52.3229 33.8323 55.952 29.4992 60.8603 29.0629C65.7685 28.6266 70.1017 32.2557 70.538 37.164C70.5875 37.6895 70.5875 38.2151 70.538 38.7406C70.538 39.871 69.6158 40.803 68.4656 40.803Z" fill="#981F62"/>
<path d="M48.0095 67.8626C35.3175 67.9915 23.4683 61.5066 16.7256 50.758C16.2695 49.707 16.7554 48.4874 17.8064 48.0312C18.7187 47.6346 19.7896 47.942 20.3448 48.7749C26.3537 58.2245 36.8147 63.8864 48.0095 63.7674C59.1845 63.8269 69.6157 58.165 75.6742 48.7749C76.1105 47.7139 77.3202 47.2082 78.3812 47.6445C79.4422 48.0808 79.9479 49.2905 79.5116 50.3515C79.4521 50.5002 79.3728 50.6291 79.2835 50.758C72.5508 61.5066 60.7016 67.9915 48.0095 67.8626Z" fill="#981F62"/>
<path d="M131.857 64.7688C128.753 64.7688 126.383 65.7108 124.727 67.6047C123.071 69.4986 122.248 72.1758 122.248 75.6364C122.248 79.1465 123.161 81.8436 124.995 83.7375C126.958 85.6809 129.635 86.7122 132.392 86.5734C133.82 86.613 135.248 86.385 136.596 85.909C137.727 85.4826 138.827 84.9769 139.888 84.4018C140.553 84.9373 141.098 85.6115 141.485 86.385C141.881 87.2476 142.08 88.1797 142.06 89.1316C142.06 90.7875 141.148 92.1856 139.313 93.3358C137.479 94.486 134.692 95.0711 130.934 95.1008C128.356 95.1206 125.778 94.724 123.319 93.9506C121.019 93.2268 118.897 92.017 117.102 90.4107C115.268 88.735 113.83 86.6725 112.898 84.3721C111.807 81.5957 111.292 78.621 111.361 75.6364C111.311 72.8005 111.807 69.9845 112.838 67.337C113.761 65.0663 115.139 63.0137 116.894 61.3083C118.619 59.6523 120.672 58.3831 122.913 57.5601C125.273 56.7074 127.771 56.2711 130.28 56.2909C133.988 56.2909 136.854 56.8958 138.887 58.1055C140.929 59.3152 141.941 60.872 141.941 62.7559C141.971 63.7277 141.693 64.6796 141.157 65.4827C140.682 66.1868 140.057 66.7916 139.343 67.2576C138.292 66.5636 137.161 65.9785 135.991 65.5125C134.673 64.9969 133.275 64.749 131.857 64.7688Z" fill="#981F62"/>
<path d="M157.954 93.9509L155.971 94.2782C155.099 94.417 154.226 94.4963 153.344 94.4963C152.54 94.4963 151.747 94.4368 150.954 94.3079C150.309 94.2187 149.695 93.9708 149.169 93.5841C148.673 93.1973 148.287 92.6917 148.059 92.1066C147.761 91.3233 147.632 90.4904 147.662 89.6575V54.6155L149.645 54.2784C150.518 54.1396 151.39 54.0702 152.273 54.0702C153.076 54.0602 153.869 54.1197 154.662 54.2486C155.307 54.3478 155.922 54.6056 156.447 54.9824C156.943 55.3691 157.33 55.8748 157.558 56.4598C157.855 57.2432 157.984 58.0761 157.954 58.909V93.9509Z" fill="#981F62"/>
<path d="M165.024 65.0664C165.649 64.9078 166.284 64.7789 166.928 64.7095C167.821 64.5806 168.713 64.5211 169.615 64.5211C170.419 64.5112 171.212 64.5806 172.005 64.7095C172.65 64.7987 173.254 65.0466 173.78 65.4333C174.286 65.8101 174.672 66.3257 174.9 66.9107C175.188 67.6941 175.327 68.527 175.297 69.3599V82.3494C175.168 83.6484 175.604 84.9374 176.507 85.8794C177.508 86.6528 178.748 87.0296 180.007 86.9404C180.77 86.9602 181.524 86.8809 182.268 86.7024C182.734 86.5735 183.19 86.4149 183.636 86.2165V65.0664C184.261 64.9078 184.895 64.7789 185.54 64.7095C186.432 64.5806 187.325 64.5211 188.227 64.5211C189.02 64.5112 189.823 64.5707 190.607 64.7095C191.251 64.7987 191.866 65.0466 192.392 65.4333C192.887 65.8101 193.284 66.3257 193.512 66.9107C193.8 67.6941 193.929 68.527 193.899 69.3599V87.7237C193.978 89.5879 192.996 91.3429 191.36 92.2552C189.804 93.1972 188.098 93.8615 186.323 94.2383C184.231 94.7143 182.089 94.9522 179.947 94.9324C177.925 94.9522 175.902 94.7143 173.939 94.2086C172.223 93.7822 170.617 93.0187 169.189 91.9775C167.85 90.9562 166.799 89.6176 166.105 88.0807C165.342 86.2562 164.965 84.2929 165.024 82.3098V65.0664Z" fill="#981F62"/>
<path d="M200.909 54.675C201.563 54.5064 202.228 54.3775 202.892 54.2784C203.795 54.1396 204.697 54.0702 205.609 54.0702C206.412 54.0602 207.206 54.1197 207.999 54.2486C208.643 54.3478 209.258 54.6056 209.784 54.9824C210.279 55.3592 210.656 55.8748 210.874 56.4598C211.142 57.2531 211.261 58.0761 211.231 58.909V64.8584C212.153 64.4816 213.115 64.194 214.097 64.0056C215.079 63.8371 216.07 63.7578 217.072 63.7677C218.956 63.7478 220.82 64.085 222.575 64.7592C224.29 65.4335 225.857 66.4449 227.166 67.7339C228.544 69.1221 229.615 70.778 230.309 72.6025C231.856 76.9952 231.856 81.7745 230.309 86.1671C229.595 88.0214 228.475 89.6773 227.017 91.0258C225.53 92.3843 223.765 93.3957 221.851 94.0005C219.669 94.6847 217.399 95.0218 215.118 94.9921C212.798 95.0417 210.488 94.7244 208.276 94.0303C206.591 93.4948 205.004 92.7115 203.557 91.7001C201.901 90.6589 200.899 88.8345 200.899 86.8712L200.909 54.675ZM215.049 86.8811C216.715 86.9703 218.311 86.2564 219.372 84.9773C220.502 83.3214 221.048 81.3283 220.909 79.3253C220.909 76.7869 220.383 74.893 219.342 73.6437C218.301 72.3943 216.734 71.7002 215.108 71.7696C214.404 71.7597 213.71 71.839 213.026 72.0175C212.372 72.2059 211.737 72.4439 211.122 72.7413V85.9093C211.618 86.2167 212.153 86.4547 212.719 86.6034C213.482 86.8017 214.265 86.9009 215.049 86.8811Z" fill="#981F62"/>
<path d="M124.211 46.7821C123.676 46.7821 123.041 46.7821 122.318 46.7325C121.594 46.6829 120.85 46.6432 120.077 46.5441C119.303 46.4449 118.54 46.3359 117.786 46.197C117.072 46.0681 116.378 45.8599 115.704 45.6021C114.147 45.1856 113.066 43.7677 113.086 42.1514V20.0792C113.046 19.514 113.245 18.9587 113.631 18.5423C114.058 18.1456 114.563 17.8482 115.119 17.6697C116.418 17.2433 117.766 16.9657 119.135 16.8467C120.781 16.6682 122.437 16.579 124.092 16.5889C128.128 16.5889 131.232 17.2631 133.403 18.6216C135.565 19.9503 136.824 22.3598 136.665 24.8982C136.695 26.2269 136.259 27.5259 135.436 28.567C134.583 29.6181 133.433 30.4014 132.134 30.8079C133.661 31.2145 135.029 32.0573 136.1 33.2174C137.171 34.4272 137.726 36.0037 137.677 37.62C137.865 40.3865 136.537 43.0439 134.206 44.561C131.886 46.0483 128.554 46.792 124.211 46.7821ZM121.138 28.5868H124.588C125.639 28.686 126.69 28.4183 127.563 27.8332C128.198 27.278 128.545 26.455 128.485 25.6121C128.485 24.8189 128.088 24.0752 127.424 23.629C126.462 23.0638 125.352 22.7961 124.231 22.8754C123.755 22.8754 123.24 22.8754 122.595 22.925C122.109 22.9448 121.633 22.9944 121.157 23.0638L121.138 28.5868ZM121.138 40.1187C121.693 40.2675 122.268 40.3567 122.843 40.3765C123.537 40.3765 124.192 40.4559 124.826 40.4559C125.927 40.4955 127.018 40.2179 127.969 39.6725C128.802 39.147 129.288 38.2149 129.219 37.2333C129.298 36.3607 128.902 35.508 128.178 35.0122C127.206 34.5065 126.105 34.2883 125.015 34.3577H121.138V40.1187Z" fill="#0F4F87"/>
<path d="M154.217 46.7822C152.461 46.8021 150.716 46.5343 149.05 46.0088C147.514 45.5229 146.106 44.7198 144.886 43.6687C143.666 42.578 142.714 41.2196 142.1 39.7025C141.396 37.9474 141.058 36.0634 141.108 34.1695C141.058 32.3351 141.396 30.5007 142.1 28.8051C143.299 26.0188 145.649 23.8969 148.545 22.9946C149.953 22.5385 151.42 22.3104 152.898 22.3104C154.455 22.2906 155.991 22.5484 157.459 23.064C158.758 23.53 159.958 24.234 160.999 25.1463C161.99 26.0288 162.784 27.0997 163.319 28.3094C163.874 29.5786 164.152 30.9469 164.142 32.3351C164.202 33.2374 163.884 34.1299 163.25 34.7843C162.546 35.3991 161.673 35.7858 160.741 35.875L149.07 37.6202C149.417 38.6613 150.191 39.5141 151.192 39.9603C152.342 40.5056 153.612 40.7733 154.881 40.7436C156.12 40.7535 157.35 40.5849 158.54 40.2478C159.521 39.99 160.473 39.5934 161.356 39.0877C161.901 39.4446 162.347 39.9206 162.665 40.4858C163.666 42.1219 163.16 44.2537 161.534 45.2651C161.425 45.3346 161.316 45.394 161.197 45.4436C160.136 45.9989 158.986 46.3658 157.796 46.5343C156.616 46.7029 155.416 46.7922 154.217 46.7822ZM152.898 28.2102C152.214 28.1904 151.539 28.3193 150.915 28.587C149.913 29.0134 149.14 29.8463 148.783 30.8775C148.604 31.3634 148.505 31.8592 148.475 32.3748L156.557 31.0461C156.408 30.3222 156.041 29.6678 155.516 29.1522C154.811 28.4878 153.86 28.1507 152.898 28.2102Z" fill="#0F4F87"/>
<path d="M183.051 31.4724C183.121 30.6693 182.813 29.876 182.218 29.3207C181.574 28.8349 180.78 28.5969 179.977 28.6365C179.353 28.6365 178.718 28.7159 178.113 28.8745C177.558 29.0133 177.022 29.2513 176.546 29.5785V45.979C176.061 46.1079 175.565 46.2071 175.059 46.2666C174.365 46.3558 173.661 46.4054 172.957 46.4054C172.332 46.4054 171.708 46.3657 171.083 46.2666C170.587 46.1873 170.111 45.989 169.695 45.7014C169.308 45.4039 169.001 44.9974 168.822 44.5413C168.594 43.9265 168.495 43.282 168.515 42.6275V28.4482C168.485 27.7144 168.673 26.9905 169.05 26.3659C169.457 25.7908 169.962 25.295 170.547 24.8983C171.777 24.0654 173.135 23.4507 174.563 23.0639C176.328 22.5682 178.153 22.3302 179.977 22.35C183.537 22.35 186.284 23.1334 188.197 24.6901C190.131 26.2766 191.202 28.6861 191.083 31.1849V45.979C190.597 46.1079 190.101 46.2071 189.595 46.2666C188.882 46.3657 188.168 46.4252 187.454 46.4352C186.829 46.4352 186.204 46.3955 185.58 46.2963C185.084 46.217 184.608 46.0187 184.191 45.7311C183.805 45.4337 183.497 45.0271 183.319 44.571C183.091 43.9562 182.992 43.3117 183.011 42.6573L183.051 31.4724Z" fill="#0F4F87"/>
<path d="M208.663 46.7822C206.908 46.8021 205.163 46.5343 203.487 46.0088C201.97 45.513 200.562 44.7198 199.352 43.6687C198.133 42.578 197.181 41.2196 196.556 39.7025C195.852 37.9474 195.515 36.0634 195.565 34.1695C195.515 32.3351 195.852 30.5007 196.556 28.8051C197.766 26.0288 200.116 23.9068 203.011 22.9946C204.409 22.5385 205.877 22.3104 207.354 22.3104C208.911 22.2906 210.448 22.5484 211.915 23.064C213.224 23.53 214.424 24.234 215.465 25.1463C216.457 26.0188 217.24 27.0997 217.776 28.3094C218.341 29.5786 218.618 30.9469 218.609 32.3351C218.668 33.2374 218.341 34.1299 217.706 34.7843C217.012 35.3991 216.14 35.7858 215.208 35.875L203.527 37.6202C203.884 38.6613 204.657 39.5141 205.659 39.9603C206.809 40.5056 208.078 40.7733 209.347 40.7436C210.587 40.7535 211.816 40.5849 213.006 40.2478C213.988 39.99 214.93 39.5934 215.812 39.0877C216.338 39.4446 216.774 39.9206 217.072 40.4858C218.083 42.102 217.587 44.2339 215.981 45.2453C215.862 45.3246 215.733 45.3841 215.604 45.4436C214.543 45.9989 213.393 46.3658 212.203 46.5343C211.033 46.7029 209.853 46.7822 208.663 46.7822ZM207.334 28.2102C206.65 28.1904 205.976 28.3193 205.351 28.587C204.836 28.8151 204.38 29.1522 204.003 29.5786C203.666 29.9653 203.398 30.4115 203.219 30.8973C203.051 31.3832 202.942 31.879 202.912 32.3946L210.993 31.0659C210.855 30.3421 210.488 29.6777 209.952 29.172C209.248 28.4978 208.306 28.1507 207.334 28.2102Z" fill="#0F4F87"/>
<path d="M89.3481 94.7736C89.239 94.7736 89.13 94.7736 89.0308 94.7637C85.3818 94.5456 76.3883 93.5838 68.8227 89.3299C62.3577 92.5525 55.149 94.2481 47.8808 94.2481C21.991 94.2481 0.930179 73.1873 0.930179 47.2975C0.920264 21.3978 21.991 0.336914 47.8808 0.336914C73.7706 0.336914 94.8315 21.3978 94.8315 47.2876V89.2804C94.8315 90.7875 94.2068 92.2551 93.1061 93.2863C92.0947 94.2481 90.7363 94.7736 89.3481 94.7736ZM69.0012 83.6284L70.2208 84.3919C77.0428 88.6656 85.8578 89.6076 89.3184 89.8158C89.5167 89.8257 89.6257 89.7464 89.7051 89.677C89.7844 89.6076 89.8736 89.4787 89.8736 89.2804V47.2876C89.8736 24.1345 71.0339 5.29474 47.8808 5.29474C24.7278 5.29474 5.87809 24.1345 5.87809 47.2876C5.87809 70.4406 24.7178 89.2804 47.8709 89.2804C54.802 89.2804 61.6636 87.555 67.7221 84.3027L69.0012 83.6284Z" fill="#981F62"/>
</svg>
