<svg width="173" height="71" viewBox="0 0 173 71" fill="none" xmlns="http://www.w3.org/2000/svg">
<path d="M30.1174 30.2659C29.2645 30.2585 28.5748 29.5688 28.5674 28.7159C28.6564 26.758 27.1435 25.0968 25.1782 25.0078C23.2203 24.9188 21.559 26.4317 21.47 28.397C21.4626 28.5082 21.4626 28.6121 21.47 28.7233C21.47 29.5762 20.7729 30.2733 19.92 30.2733C19.0671 30.2733 18.37 29.5762 18.37 28.7233C18.0659 25.0523 20.8025 21.8262 24.481 21.5295C28.1595 21.2329 31.3782 23.9621 31.6748 27.6405C31.7045 28.0039 31.7045 28.3673 31.6748 28.7307C31.6748 29.5688 30.9777 30.2659 30.1174 30.2659Z" fill="#981F62"/>
<path d="M50.5123 30.2659C49.6594 30.2585 48.9697 29.5687 48.9623 28.7159C49.0513 26.758 47.5384 25.0967 45.573 25.0077C43.6151 24.9187 41.9539 26.4316 41.8649 28.397C41.8575 28.5082 41.8575 28.612 41.8649 28.7233C41.8649 29.5762 41.1678 30.2733 40.3149 30.2733C39.462 30.2733 38.7649 29.5762 38.7649 28.7233C38.4386 25.0522 41.1529 21.8113 44.824 21.485C48.4951 21.1587 51.736 23.873 52.0623 27.5441C52.0994 27.9372 52.0994 28.3302 52.0623 28.7233C52.0623 29.5687 51.3726 30.2659 50.5123 30.2659Z" fill="#981F62"/>
<path d="M35.2127 50.5051C25.7198 50.6015 16.8573 45.7512 11.8142 37.7119C11.4731 36.9258 11.8365 36.0136 12.6226 35.6725C13.3049 35.3758 14.1059 35.6057 14.5212 36.2287C19.0155 43.2964 26.8397 47.5311 35.2127 47.4421C43.5708 47.4866 51.3728 43.2519 55.9042 36.2287C56.2305 35.4351 57.1353 35.0569 57.9288 35.3832C58.7223 35.7095 59.1006 36.6143 58.7743 37.4079C58.7298 37.5191 58.6704 37.6155 58.6037 37.7119C53.568 45.7512 44.7055 50.6015 35.2127 50.5051Z" fill="#981F62"/>
<path d="M97.9249 48.1912C95.6036 48.1912 93.8311 48.8957 92.5926 50.3122C91.3541 51.7287 90.7385 53.7311 90.7385 56.3194C90.7385 58.9448 91.4208 60.962 92.7929 62.3785C94.2613 63.8321 96.2637 64.6034 98.3254 64.4996C99.3934 64.5293 100.461 64.3587 101.47 64.0027C102.315 63.6838 103.139 63.3056 103.932 62.8754C104.429 63.2759 104.837 63.7802 105.126 64.3587C105.423 65.0039 105.571 65.701 105.556 66.413C105.556 67.6515 104.874 68.6972 103.502 69.5575C102.13 70.4178 100.046 70.8554 97.2352 70.8776C95.307 70.8924 93.3788 70.5958 91.5395 70.0173C89.8189 69.4759 88.2318 68.5711 86.8895 67.3697C85.5175 66.1163 84.4421 64.5738 83.745 62.8532C82.9292 60.7766 82.5435 58.5517 82.5954 56.3194C82.5584 54.1984 82.9292 52.0921 83.7005 50.112C84.3902 48.4136 85.4211 46.8785 86.7337 45.6029C88.0242 44.3643 89.5594 43.4151 91.2354 42.7995C93.0005 42.1617 94.8694 41.8354 96.7457 41.8502C99.5194 41.8502 101.663 42.3026 103.183 43.2074C104.711 44.1122 105.467 45.2765 105.467 46.6856C105.49 47.4124 105.282 48.1244 104.881 48.7251C104.525 49.2517 104.058 49.7041 103.524 50.0526C102.738 49.5335 101.893 49.0959 101.018 48.7474C100.031 48.3617 98.9855 48.1763 97.9249 48.1912Z" fill="#981F62"/>
<path d="M117.444 70.0173L115.961 70.262C115.309 70.3658 114.656 70.4252 113.996 70.4252C113.395 70.4252 112.802 70.3807 112.209 70.2842C111.726 70.2175 111.267 70.0321 110.874 69.7429C110.503 69.4536 110.214 69.0754 110.043 68.6378C109.82 68.0519 109.724 67.429 109.746 66.806V40.5968L111.23 40.3446C111.882 40.2408 112.535 40.1889 113.195 40.1889C113.796 40.1815 114.389 40.226 114.982 40.3224C115.464 40.3966 115.924 40.5894 116.317 40.8712C116.688 41.1604 116.977 41.5387 117.148 41.9762C117.37 42.5621 117.467 43.1851 117.444 43.8081V70.0173Z" fill="#981F62"/>
<path d="M122.732 48.4136C123.2 48.2949 123.674 48.1985 124.156 48.1466C124.824 48.0502 125.491 48.0057 126.166 48.0057C126.767 47.9983 127.36 48.0502 127.953 48.1466C128.435 48.2133 128.888 48.3987 129.281 48.688C129.659 48.9698 129.948 49.3554 130.119 49.793C130.334 50.3789 130.438 51.0019 130.416 51.6248V61.3402C130.319 62.3117 130.646 63.2758 131.32 63.9804C132.069 64.5589 132.997 64.8407 133.938 64.7739C134.509 64.7888 135.073 64.7294 135.629 64.5959C135.978 64.4995 136.319 64.3809 136.653 64.2325V48.4136C137.12 48.2949 137.595 48.1985 138.077 48.1466C138.744 48.0502 139.412 48.0057 140.086 48.0057C140.68 47.9983 141.281 48.0428 141.866 48.1466C142.348 48.2133 142.808 48.3987 143.201 48.688C143.572 48.9698 143.869 49.3554 144.039 49.793C144.254 50.3789 144.351 51.0019 144.329 51.6248V65.3598C144.388 66.7541 143.654 68.0668 142.43 68.7491C141.266 69.4536 139.99 69.9505 138.663 70.2323C137.098 70.5883 135.496 70.7663 133.894 70.7515C132.381 70.7663 130.868 70.5883 129.4 70.2101C128.117 69.8912 126.915 69.3201 125.847 68.5414C124.846 67.7775 124.06 66.7763 123.541 65.6268C122.97 64.2622 122.688 62.7938 122.732 61.3105V48.4136Z" fill="#981F62"/>
<path d="M149.572 40.6413C150.061 40.5152 150.558 40.4188 151.055 40.3446C151.73 40.2408 152.405 40.1889 153.087 40.1889C153.688 40.1815 154.281 40.226 154.875 40.3224C155.357 40.3966 155.816 40.5894 156.209 40.8712C156.58 41.153 156.862 41.5387 157.025 41.9762C157.225 42.5695 157.314 43.1851 157.292 43.8081V48.2578C157.982 47.976 158.701 47.7609 159.436 47.62C160.17 47.494 160.911 47.4346 161.66 47.442C163.07 47.4272 164.464 47.6794 165.776 48.1837C167.059 48.688 168.231 49.4444 169.21 50.4086C170.241 51.4468 171.042 52.6854 171.561 54.05C172.718 57.3354 172.718 60.91 171.561 64.1955C171.027 65.5823 170.189 66.8208 169.099 67.8295C167.987 68.8455 166.666 69.602 165.235 70.0543C163.603 70.5661 161.905 70.8182 160.199 70.796C158.464 70.8331 156.736 70.5957 155.082 70.0766C153.821 69.6761 152.635 69.0902 151.552 68.3338C150.313 67.5551 149.564 66.1905 149.564 64.722L149.572 40.6413ZM160.148 64.7294C161.393 64.7962 162.587 64.2622 163.381 63.3055C164.226 62.067 164.634 60.5763 164.531 59.0782C164.531 57.1797 164.137 55.7631 163.359 54.8287C162.58 53.8942 161.408 53.3751 160.192 53.427C159.665 53.4196 159.146 53.4789 158.635 53.6124C158.145 53.7533 157.67 53.9313 157.211 54.1538V64.0026C157.581 64.2326 157.982 64.4105 158.405 64.5218C158.976 64.6701 159.562 64.7443 160.148 64.7294Z" fill="#981F62"/>
<path d="M92.2067 34.738C91.8062 34.738 91.3315 34.738 90.7901 34.7009C90.2487 34.6638 89.6925 34.6341 89.1141 34.56C88.5356 34.4858 87.9645 34.4042 87.4009 34.3004C86.8669 34.204 86.3478 34.0483 85.8435 33.8554C84.6791 33.544 83.8707 32.4834 83.8856 31.2746V14.7659C83.8559 14.3432 84.0042 13.9278 84.2935 13.6164C84.6124 13.3197 84.9906 13.0972 85.4059 12.9637C86.3774 12.6448 87.3861 12.4372 88.4095 12.3482C89.6406 12.2147 90.8791 12.1479 92.1177 12.1553C95.1361 12.1553 97.4574 12.6597 99.0816 13.6757C100.698 14.6695 101.64 16.4716 101.522 18.3702C101.544 19.364 101.217 20.3355 100.602 21.1142C99.9641 21.9004 99.1038 22.4862 98.1323 22.7903C99.2744 23.0944 100.298 23.7248 101.099 24.5925C101.9 25.4973 102.315 26.6765 102.278 27.8853C102.419 29.9545 101.425 31.942 99.6823 33.0767C97.9469 34.1892 95.455 34.7454 92.2067 34.738ZM89.9076 21.1291H92.4885C93.2746 21.2032 94.0607 21.003 94.7134 20.5654C95.188 20.1501 95.4476 19.5346 95.4031 18.9042C95.4031 18.3109 95.1064 17.7546 94.6095 17.4209C93.8902 16.9982 93.0595 16.7979 92.2215 16.8573C91.8655 16.8573 91.4799 16.8573 90.9978 16.8944C90.6344 16.9092 90.2784 16.9463 89.9224 16.9982L89.9076 21.1291ZM89.9076 29.7542C90.3229 29.8655 90.7531 29.9322 91.1832 29.947C91.7023 29.947 92.1918 30.0064 92.6665 30.0064C93.4897 30.036 94.3055 29.8284 95.0174 29.4205C95.6404 29.0274 96.0038 28.3303 95.9519 27.5961C96.0112 26.9434 95.7146 26.3056 95.1732 25.9348C94.4464 25.5566 93.6232 25.3934 92.8074 25.4454H89.9076V29.7542Z" fill="#0F4F87"/>
<path d="M114.649 34.7379C113.336 34.7528 112.031 34.5525 110.785 34.1595C109.635 33.7961 108.582 33.1953 107.67 32.4092C106.758 31.5934 106.046 30.5774 105.586 29.4427C105.059 28.13 104.807 26.7209 104.844 25.3044C104.807 23.9324 105.059 22.5604 105.586 21.2922C106.483 19.2082 108.241 17.6211 110.407 16.9462C111.46 16.6051 112.557 16.4345 113.662 16.4345C114.827 16.4197 115.976 16.6125 117.074 16.9982C118.045 17.3467 118.943 17.8733 119.721 18.5556C120.463 19.2156 121.056 20.0166 121.457 20.9214C121.872 21.8707 122.08 22.8941 122.072 23.9324C122.117 24.6073 121.88 25.2747 121.405 25.7642C120.878 26.224 120.226 26.5133 119.529 26.58L110.8 27.8853C111.059 28.664 111.638 29.3018 112.387 29.6355C113.247 30.0434 114.196 30.2437 115.146 30.2214C116.073 30.2288 116.992 30.1028 117.882 29.8506C118.616 29.6578 119.328 29.3611 119.988 28.9829C120.396 29.2499 120.73 29.6059 120.967 30.0286C121.716 31.2523 121.338 32.8468 120.122 33.6032C120.04 33.6552 119.959 33.6997 119.87 33.7367C119.076 34.1521 118.216 34.4265 117.326 34.5525C116.443 34.6786 115.546 34.7454 114.649 34.7379ZM113.662 20.8472C113.151 20.8324 112.646 20.9288 112.179 21.129C111.43 21.4479 110.852 22.0709 110.585 22.8422C110.451 23.2056 110.377 23.5764 110.355 23.9621L116.399 22.9683C116.288 22.4269 116.013 21.9374 115.62 21.5518C115.094 21.0549 114.382 20.8027 113.662 20.8472Z" fill="#0F4F87"/>
<path d="M136.215 23.2872C136.267 22.6865 136.037 22.0932 135.592 21.6779C135.11 21.3145 134.517 21.1365 133.916 21.1662C133.449 21.1662 132.974 21.2255 132.522 21.3442C132.107 21.448 131.706 21.626 131.35 21.8707V34.1373C130.987 34.2337 130.616 34.3079 130.238 34.3524C129.718 34.4191 129.192 34.4562 128.665 34.4562C128.198 34.4562 127.731 34.4265 127.264 34.3524C126.893 34.293 126.537 34.1447 126.225 33.9296C125.936 33.7071 125.706 33.4031 125.573 33.0619C125.402 32.6021 125.328 32.12 125.343 31.6306V21.0253C125.321 20.4765 125.462 19.9351 125.743 19.4678C126.047 19.0377 126.426 18.6669 126.863 18.3702C127.783 17.7473 128.799 17.2874 129.867 16.9982C131.187 16.6274 132.552 16.4494 133.916 16.4642C136.579 16.4642 138.633 17.0501 140.064 18.2145C141.51 19.4011 142.311 21.2033 142.222 23.0722V34.1373C141.859 34.2337 141.488 34.3079 141.11 34.3524C140.576 34.4265 140.042 34.471 139.508 34.4784C139.041 34.4784 138.574 34.4488 138.106 34.3746C137.735 34.3153 137.38 34.1669 137.068 33.9519C136.779 33.7294 136.549 33.4253 136.415 33.0842C136.245 32.6244 136.171 32.1423 136.185 31.6528L136.215 23.2872Z" fill="#0F4F87"/>
<path d="M155.371 34.7379C154.059 34.7528 152.753 34.5525 151.5 34.1595C150.365 33.7887 149.312 33.1953 148.407 32.4092C147.495 31.5934 146.783 30.5774 146.316 29.4427C145.789 28.13 145.537 26.7209 145.574 25.3044C145.537 23.9324 145.789 22.5604 146.316 21.2922C147.221 19.2156 148.978 17.6285 151.144 16.9462C152.19 16.6051 153.287 16.4345 154.392 16.4345C155.557 16.4197 156.706 16.6125 157.804 16.9982C158.783 17.3467 159.68 17.8733 160.459 18.5556C161.201 19.2082 161.786 20.0166 162.187 20.9214C162.61 21.8707 162.817 22.8941 162.81 23.9324C162.854 24.6073 162.61 25.2747 162.135 25.7642C161.616 26.224 160.963 26.5133 160.266 26.58L151.53 27.8853C151.797 28.664 152.375 29.3018 153.124 29.6355C153.984 30.0434 154.934 30.2437 155.883 30.2214C156.81 30.2288 157.73 30.1028 158.62 29.8506C159.354 29.6578 160.058 29.3611 160.718 28.9829C161.112 29.2499 161.438 29.6059 161.66 30.0286C162.417 31.2374 162.046 32.8319 160.845 33.5884C160.756 33.6477 160.659 33.6922 160.563 33.7367C159.769 34.1521 158.909 34.4265 158.019 34.5525C157.144 34.6786 156.261 34.7379 155.371 34.7379ZM154.378 20.8472C153.866 20.8324 153.361 20.9288 152.894 21.129C152.509 21.2996 152.167 21.5518 151.886 21.8707C151.633 22.1599 151.433 22.4936 151.3 22.857C151.174 23.2204 151.092 23.5912 151.07 23.9769L157.114 22.9831C157.01 22.4417 156.736 21.9448 156.335 21.5666C155.809 21.0623 155.104 20.8027 154.378 20.8472Z" fill="#0F4F87"/>
<path d="M66.1311 70.6328C66.0496 70.6328 65.968 70.6328 65.8938 70.6254C63.1646 70.4623 56.438 69.7429 50.7794 66.5613C45.944 68.9716 40.5523 70.2398 35.1162 70.2398C15.7522 70.2398 2.61644e-06 54.4876 2.61644e-06 35.1236C-0.00741368 15.7522 15.7522 0 35.1162 0C54.4801 0 70.2324 15.7522 70.2324 35.1162V66.5242C70.2324 67.6515 69.7651 68.7491 68.9419 69.5204C68.1855 70.2398 67.1694 70.6328 66.1311 70.6328ZM50.9129 62.2969L51.8251 62.868C56.9275 66.0644 63.5206 66.7689 66.1089 66.9247C66.2572 66.9321 66.3388 66.8728 66.3981 66.8209C66.4575 66.7689 66.5242 66.6725 66.5242 66.5242V35.1162C66.5242 17.7991 52.4332 3.70815 35.1162 3.70815C17.7991 3.70815 3.70073 17.7991 3.70073 35.1162C3.70073 52.4332 17.7917 66.5242 35.1088 66.5242C40.2928 66.5242 45.4248 65.2338 49.9562 62.8012L50.9129 62.2969Z" fill="#981F62"/>
</svg>
