<svg width="32" height="39" viewBox="0 0 32 39" fill="none" xmlns="http://www.w3.org/2000/svg">
<path d="M21.1955 14.4131C20.7272 14.4131 20.3477 14.8126 20.3477 15.3055V32.1728C20.3477 32.6654 20.7272 33.0653 21.1955 33.0653C21.6638 33.0653 22.0433 32.6654 22.0433 32.1728V15.3055C22.0433 14.8126 21.6638 14.4131 21.1955 14.4131Z" fill="#981F62"/>
<path d="M10.1738 14.4131C9.70546 14.4131 9.32593 14.8126 9.32593 15.3055V32.1728C9.32593 32.6654 9.70546 33.0653 10.1738 33.0653C10.642 33.0653 11.0216 32.6654 11.0216 32.1728V15.3055C11.0216 14.8126 10.642 14.4131 10.1738 14.4131Z" fill="#981F62"/>
<path d="M2.56903 11.6107V34.1136C2.56903 35.4437 3.05203 36.6927 3.8958 37.589C4.73567 38.4877 5.9045 38.9979 7.12774 39H24.2418C25.4654 38.9979 26.6342 38.4877 27.4738 37.589C28.3175 36.6927 28.8005 35.4437 28.8005 34.1136V11.6107C30.4778 11.1611 31.5647 9.52496 31.3403 7.78711C31.1156 6.04961 29.6496 4.74988 27.914 4.74952H23.2829V3.60784C23.2882 2.64775 22.9122 1.72584 22.2391 1.04761C21.566 0.36974 20.6516 -0.00772906 19.7008 0.000120006H11.6688C10.718 -0.00772906 9.80354 0.36974 9.13044 1.04761C8.45734 1.72584 8.08139 2.64775 8.08669 3.60784V4.74952H3.45554C1.71997 4.74988 0.253983 6.04961 0.0292622 7.78711C-0.195105 9.52496 0.89175 11.1611 2.56903 11.6107V11.6107ZM24.2418 37.1733H7.12774C5.5812 37.1733 4.3781 35.8318 4.3781 34.1136V11.691H26.9915V34.1136C26.9915 35.8318 25.7884 37.1733 24.2418 37.1733ZM9.89576 3.60784C9.88975 3.13225 10.0749 2.67451 10.4092 2.33879C10.7431 2.00306 11.1974 1.81861 11.6688 1.82681H19.7008C20.1721 1.81861 20.6265 2.00306 20.9604 2.33879C21.2947 2.67415 21.4798 3.13225 21.4738 3.60784V4.74952H9.89576V3.60784ZM3.45554 6.57621H27.914C28.8133 6.57621 29.5422 7.31224 29.5422 8.22023C29.5422 9.12823 28.8133 9.86426 27.914 9.86426H3.45554C2.55631 9.86426 1.82738 9.12823 1.82738 8.22023C1.82738 7.31224 2.55631 6.57621 3.45554 6.57621V6.57621Z" fill="#981F62"/>
<path d="M15.6848 14.4131C14.9824 14.4131 14.4131 14.8126 14.4131 15.3055V32.1728C14.4131 32.6654 14.9824 33.0653 15.6848 33.0653C16.3873 33.0653 16.9566 32.6654 16.9566 32.1728V15.3055C16.9566 14.8126 16.3873 14.4131 15.6848 14.4131Z" fill="#981F62"/>
</svg>
