<svg width="35" height="35" viewBox="0 0 35 35" fill="none" xmlns="http://www.w3.org/2000/svg">
<path d="M17.2421 0.400879C7.91581 0.400879 0.355225 7.99332 0.355225 17.3588C0.355225 25.7586 6.44326 32.7151 14.4257 34.0621V20.8967H10.3521V16.159H14.4257V12.6657C14.4257 8.61233 16.8909 6.4035 20.4921 6.4035C22.2169 6.4035 23.6991 6.53256 24.1294 6.58941V10.8262L21.6317 10.8274C19.6737 10.8274 19.2962 11.7616 19.2962 13.133V16.1566H23.9683L23.3589 20.8943H19.2962V34.1754C27.6513 33.1542 34.1287 26.0206 34.1287 17.354C34.1287 7.99332 26.5681 0.400879 17.2421 0.400879Z" fill="#981F62"/>
</svg>
