<svg width="24" height="17" viewBox="0 0 24 17" fill="none" xmlns="http://www.w3.org/2000/svg">
<path fill-rule="evenodd" clip-rule="evenodd" d="M0 1.5C0 0.671573 0.671573 0 1.5 0L22.5 0C23.3284 0 24 0.671573 24 1.5C24 2.32843 23.3284 3 22.5 3L1.5 3C0.671573 3 0 2.32843 0 1.5Z" fill="#981F62"/>
<path fill-rule="evenodd" clip-rule="evenodd" d="M7 8.5C7 7.67157 7.67157 7 8.5 7L22.5 7C23.3284 7 24 7.67157 24 8.5C24 9.32843 23.3284 10 22.5 10L8.5 10C7.67157 10 7 9.32843 7 8.5Z" fill="#981F62"/>
<path fill-rule="evenodd" clip-rule="evenodd" d="M0 15.5C0 14.6716 0.671573 14 1.5 14L22.5 14C23.3284 14 24 14.6716 24 15.5C24 16.3284 23.3284 17 22.5 17L1.5 17C0.671573 17 0 16.3284 0 15.5Z" fill="#981F62"/>
</svg>
