<svg width="35" height="35" viewBox="0 0 35 35" fill="none" xmlns="http://www.w3.org/2000/svg">
<path d="M17.8451 35C17.7293 35 17.6134 35 17.4967 34.9995C14.7531 35.0061 12.2181 34.9364 9.7528 34.7864C7.49258 34.6489 5.42944 33.8678 3.78608 32.5278C2.2004 31.2349 1.11756 29.4866 0.567725 27.3322C0.0891911 25.4566 0.0638223 23.6155 0.0395218 21.8346C0.0218972 20.5569 0.00373855 19.0428 0 17.5032C0.00373855 15.9571 0.0218972 14.443 0.0395218 13.1653C0.0638223 11.3847 0.0891911 9.54354 0.567725 7.66766C1.11756 5.51326 2.2004 3.76502 3.78608 2.47206C5.42944 1.13211 7.49258 0.351046 9.75307 0.213525C12.2184 0.0637219 14.7539 -0.00623987 17.5033 0.000435869C20.2477 -0.00543878 22.7819 0.0637219 25.2472 0.213525C27.5074 0.351046 29.5706 1.13211 31.2139 2.47206C32.7999 3.76502 33.8824 5.51326 34.4323 7.66766C34.9108 9.54327 34.9362 11.3847 34.9605 13.1653C34.9781 14.443 34.9965 15.9571 35 17.4967V17.5032C34.9965 19.0428 34.9781 20.5569 34.9605 21.8346C34.9362 23.6152 34.9111 25.4564 34.4323 27.3322C33.8824 29.4866 32.7999 31.2349 31.2139 32.5278C29.5706 33.8678 27.5074 34.6489 25.2472 34.7864C22.8863 34.93 20.4611 35 17.8451 35V35ZM17.4967 32.2651C20.1956 32.2715 22.6737 32.2034 25.0811 32.0571C26.7902 31.9532 28.272 31.3986 29.4859 30.4087C30.608 29.4936 31.3808 28.2311 31.7827 26.6561C32.1811 25.0948 32.2041 23.4184 32.2263 21.7973C32.2436 20.5281 32.2618 19.0247 32.2655 17.5C32.2618 15.9749 32.2436 14.4718 32.2263 13.2026C32.2041 11.5815 32.1811 9.9051 31.7827 8.34351C31.3808 6.76857 30.608 5.50605 29.4859 4.59094C28.272 3.60133 26.7902 3.04671 25.0811 2.94283C22.6737 2.79624 20.1956 2.72868 17.5031 2.73455C14.8046 2.72814 12.3263 2.79624 9.9189 2.94283C8.20985 3.04671 6.72805 3.60133 5.51409 4.59094C4.39199 5.50605 3.61918 6.76857 3.21729 8.34351C2.81886 9.9051 2.7959 11.5812 2.77373 13.2026C2.75638 14.4729 2.73822 15.9771 2.73448 17.5032C2.73822 19.0226 2.75638 20.527 2.77373 21.7973C2.7959 23.4184 2.81886 25.0948 3.21729 26.6561C3.61918 28.2311 4.39199 29.4936 5.51409 30.4087C6.72805 31.3983 8.20985 31.9529 9.9189 32.0568C12.3263 32.2034 14.8052 32.2718 17.4967 32.2651V32.2651ZM17.4315 26.0449C12.7199 26.0449 8.88626 22.2117 8.88626 17.5C8.88626 12.7882 12.7199 8.95501 17.4315 8.95501C22.1434 8.95501 25.9768 12.7882 25.9768 17.5C25.9768 22.2117 22.1434 26.0449 17.4315 26.0449V26.0449ZM17.4315 11.6894C14.2276 11.6894 11.6207 14.2961 11.6207 17.5C11.6207 20.7038 14.2276 23.3105 17.4315 23.3105C20.6357 23.3105 23.2423 20.7038 23.2423 17.5C23.2423 14.2961 20.6357 11.6894 17.4315 11.6894V11.6894ZM26.9338 6.22062C25.8013 6.22062 24.883 7.13867 24.883 8.27141C24.883 9.40415 25.8013 10.3222 26.9338 10.3222C28.0666 10.3222 28.9847 9.40415 28.9847 8.27141C28.9847 7.13867 28.0666 6.22062 26.9338 6.22062Z" fill="#981F62"/>
</svg>
