<svg width="34" height="35" viewBox="0 0 34 35" fill="none" xmlns="http://www.w3.org/2000/svg">
<path d="M4.54586 0.400879C2.08797 0.400879 0.480957 2.1023 0.480957 4.33858C0.480957 6.52548 2.0401 8.27543 4.45154 8.27543H4.49819C7.00415 8.27543 8.5637 6.52548 8.5637 4.33858C8.51685 2.1023 7.00415 0.400879 4.54586 0.400879V0.400879Z" fill="#981F62"/>
<path d="M0.905762 11.3867H8.09119V34.1753H0.905762V11.3867Z" fill="#981F62"/>
<path d="M25.728 10.8521C21.8518 10.8521 19.2525 14.6918 19.2525 14.6918V11.3869H12.0669V34.1756H19.2521V21.4495C19.2521 20.7682 19.299 20.088 19.4888 19.6008C20.0083 18.2404 21.1903 16.831 23.1754 16.831C25.7755 16.831 26.8154 18.9208 26.8154 21.9844V34.1756H34.0002V21.109C34.0002 14.1093 30.4552 10.8521 25.728 10.8521V10.8521Z" fill="#981F62"/>
</svg>
