<svg width="71" height="71" viewBox="0 0 71 71" fill="none" xmlns="http://www.w3.org/2000/svg">
<path d="M46.693 14.0864C42.3705 13.7084 38.713 14.9439 35.255 17.9609C33.302 16.3089 30.6105 14.0829 24.349 14.0829C15.858 14.0829 11.5985 23.2564 11.5985 28.3909C11.5985 42.4714 33.7535 56.1634 34.6985 56.7409C34.8805 56.8529 35.087 56.9089 35.29 56.9089C35.5035 56.9089 35.717 56.8494 35.9025 56.7304C36.8545 56.1179 59.244 41.6174 59.244 28.1879C59.244 18.7134 51.544 14.5099 46.693 14.0864ZM24.349 16.3579C29.837 16.3579 31.965 18.1604 33.841 19.7494C34.0895 19.9594 34.331 20.1659 34.5725 20.3584C35.017 20.7189 35.661 20.6909 36.074 20.2954C39.2905 17.2224 42.5035 16.0079 46.4935 16.3544C50.543 16.7079 56.9655 20.2324 56.9655 28.1844C56.9655 30.6169 56.087 33.1334 54.68 35.6009H44.796L40.057 26.4169C39.861 26.0389 39.4725 25.8009 39.0455 25.8009H39.042C38.615 25.8009 38.2265 26.0424 38.0305 26.4239L31.923 38.4394L28.024 32.4614C27.8105 32.1359 27.45 31.9259 27.058 31.9469C26.6695 31.9504 26.309 32.1534 26.106 32.4824L24.1845 35.5729H15.886C14.64 33.2174 13.8735 30.7919 13.8735 28.3909C13.8735 24.1909 17.4715 16.3579 24.349 16.3579ZM35.276 54.4134C32.7035 52.7509 22.599 45.9119 17.244 37.8479H24.818C25.21 37.8479 25.5775 37.6449 25.784 37.3124L27.0965 35.2019L31.097 41.3304C31.307 41.6524 31.6675 41.8449 32.049 41.8449C32.07 41.8449 32.091 41.8449 32.112 41.8449C32.518 41.8239 32.882 41.5859 33.064 41.2254L39.056 29.4374L43.095 37.2634C43.291 37.6414 43.6795 37.8794 44.1065 37.8794H53.2345C47.7255 45.7369 37.81 52.7019 35.276 54.4134Z" fill="#981F62"/>
</svg>
