<svg width="83" height="83" viewBox="0 0 83 83" fill="none" xmlns="http://www.w3.org/2000/svg">
<path d="M54.8698 16.1875C49.7582 15.7405 45.433 17.2015 41.3438 20.7693C39.0342 18.8157 35.8514 16.1833 28.4468 16.1833C18.4057 16.1833 13.3687 27.0315 13.3687 33.1033C13.3687 49.7543 39.5682 65.9459 40.6857 66.6288C40.9009 66.7612 41.1451 66.8275 41.3852 66.8275C41.6376 66.8275 41.8901 66.7571 42.1095 66.6164C43.2353 65.892 69.7121 48.7444 69.7121 32.8633C69.7121 21.6592 60.6064 16.6883 54.8698 16.1875ZM28.4468 18.8737C34.9367 18.8737 37.4532 21.0052 39.6716 22.8843C39.9655 23.1326 40.2511 23.3768 40.5367 23.6045C41.0623 24.0308 41.8239 23.9977 42.3123 23.53C46.116 19.896 49.9155 18.4598 54.6339 18.8695C59.4227 19.2875 67.0176 23.4555 67.0176 32.8591C67.0176 35.7357 65.9788 38.7116 64.3149 41.6296H52.6265L47.0224 30.769C46.7906 30.322 46.3312 30.0405 45.8262 30.0405H45.8221C45.3172 30.0405 44.8577 30.3261 44.626 30.7773L37.4035 44.9862L32.7927 37.9169C32.5402 37.532 32.1139 37.2837 31.6504 37.3085C31.1909 37.3126 30.7646 37.5527 30.5246 37.9418L28.2523 41.5964H18.4389C16.9654 38.8109 16.059 35.9427 16.059 33.1033C16.059 28.1366 20.3138 18.8737 28.4468 18.8737ZM41.3686 63.8764C38.3265 61.9104 26.3774 53.8229 20.0448 44.2868H29.0014C29.465 44.2868 29.8996 44.0467 30.1438 43.6535L31.6959 41.1577L36.4267 48.405C36.675 48.7858 37.1014 49.0134 37.5525 49.0134C37.5773 49.0134 37.6022 49.0134 37.627 49.0134C38.1071 48.9886 38.5376 48.7072 38.7528 48.2808L45.8387 34.3409L50.615 43.5956C50.8468 44.0426 51.3062 44.324 51.8112 44.324H62.6055C56.0908 53.6159 44.3652 61.8524 41.3686 63.8764Z" fill="#981F62"/>
</svg>
