<svg width="20" height="20" viewBox="0 0 20 20" fill="none" xmlns="http://www.w3.org/2000/svg">
<path d="M8.69771 0C3.90192 0 0 3.90193 0 8.69772C0 13.4938 3.90192 17.3954 8.69771 17.3954C13.4938 17.3954 17.3954 13.4938 17.3954 8.69772C17.3954 3.90193 13.4938 0 8.69771 0ZM8.69771 15.7897C4.78722 15.7897 1.60573 12.6082 1.60573 8.69775C1.60573 4.78727 4.78722 1.60573 8.69771 1.60573C12.6082 1.60573 15.7897 4.78723 15.7897 8.69772C15.7897 12.6082 12.6082 15.7897 8.69771 15.7897Z" fill="#981F62"/>
<path d="M19.5153 18.38L14.9122 13.7769C14.5985 13.4633 14.0906 13.4633 13.7769 13.7769C13.4633 14.0903 13.4633 14.5988 13.7769 14.9122L18.38 19.5153C18.5368 19.6721 18.7421 19.7505 18.9477 19.7505C19.1529 19.7505 19.3584 19.6721 19.5153 19.5153C19.8289 19.2019 19.8289 18.6934 19.5153 18.38Z" fill="#981F62"/>
</svg>
