<svg width="35" height="36" viewBox="0 0 35 36" fill="none" xmlns="http://www.w3.org/2000/svg">
<path fill-rule="evenodd" clip-rule="evenodd" d="M29.9006 5.23169C26.6104 1.85977 22.2348 0.00197754 17.5732 0C7.9676 0 0.15004 8.00222 0.146177 17.8376C0.144889 20.9817 0.947251 24.0508 2.47234 26.7561L0 36L9.23833 33.5193C11.7839 34.9407 14.6497 35.6897 17.5661 35.6906H17.5734C27.1779 35.6906 34.9964 27.6877 35 17.8519C35.0019 13.0852 33.1909 8.60339 29.9006 5.23169ZM17.5732 32.678H17.5672C14.9682 32.6769 12.4192 31.9619 10.195 30.6112L9.66634 30.2897L4.18418 31.7619L5.64745 26.2905L5.30293 25.7295C3.85297 23.3688 3.08731 20.6402 3.0886 17.8387C3.09161 9.66379 9.5895 3.01289 17.579 3.01289C21.4478 3.01421 25.0847 4.55845 27.8193 7.36106C30.554 10.1637 32.0591 13.8889 32.0578 17.8508C32.0544 26.0264 25.5569 32.678 17.5732 32.678V32.678ZM25.5183 21.5732C25.0829 21.35 22.942 20.272 22.5428 20.123C22.144 19.9742 21.8533 19.9002 21.5633 20.3462C21.2729 20.7923 20.4386 21.7964 20.1844 22.0937C19.9303 22.3912 19.6766 22.4286 19.241 22.2053C18.8055 21.9823 17.4025 21.5114 15.7392 19.9929C14.4449 18.811 13.571 17.3514 13.3169 16.9053C13.0632 16.4588 13.3148 16.2409 13.5079 15.9957C13.9793 15.3965 14.4513 14.7683 14.5964 14.471C14.7417 14.1735 14.669 13.9131 14.5599 13.6901C14.4513 13.467 13.5805 11.2731 13.2177 10.3803C12.864 9.51152 12.5053 9.62886 12.2379 9.61523C11.9841 9.60227 11.6937 9.59963 11.4033 9.59963C11.1131 9.59963 10.6413 9.71103 10.242 10.1575C9.843 10.6038 8.71823 11.682 8.71823 13.876C8.71823 16.0699 10.2785 18.1894 10.4962 18.4869C10.7138 18.7844 13.5667 23.2866 17.9347 25.2171C18.9736 25.6768 19.7845 25.9508 20.4171 26.1562C21.4603 26.4955 22.4093 26.4476 23.1597 26.3329C23.9964 26.2048 25.7357 25.2545 26.0989 24.2134C26.4616 23.1721 26.4616 22.2798 26.3526 22.0937C26.244 21.9078 25.9536 21.7964 25.5183 21.5732V21.5732Z" fill="#981F62"/>
</svg>
